<?xml version="1.0" encoding="utf-8"?>
<!-- Generator: Adobe Illustrator 19.0.0, SVG Export Plug-In . SVG Version: 6.00 Build 0)  -->
<svg version="1.1" id="Layer_1" xmlns="http://www.w3.org/2000/svg" xmlns:xlink="http://www.w3.org/1999/xlink" x="0px" y="0px"
	 viewBox="400 216 1800 570" style="enable-background:new 400 216 1800 570;" xml:space="preserve">
<style type="text/css">
	.st0{fill:#293241;}
	.st1{fill:#0D1010;}
	.st2{fill:#68D6E1;}
	.st3{fill:#F1CE9F;}
	.st4{fill:#040404;}
	.st5{fill:#FCFCFC;}
	.st6{fill:#3E4654;}
	.st7{fill:#D1D1D1;}
	.st8{opacity:0.3;fill:#D1D1D1;enable-background:new    ;}
	.st9{fill:#FEC55E;}
	.st10{fill:#DB9126;}
	.st11{opacity:0.2;fill:#D1D1D1;enable-background:new    ;}
	.st12{fill:#FF9D00;}
	.st13{fill:#FFC3B5;}
	.st14{fill:#FFFFFF;}
	.st15{fill:#FFC257;}
	.st16{opacity:0.6;fill:#D1D1D1;enable-background:new    ;}
	.st17{opacity:0.5;fill:#FFC257;enable-background:new    ;}
	.st18{fill:#F4B34A;}
	.st19{fill:#03ACD7;}
	.st20{fill:#00ABD6;}
	.st21{fill:none;enable-background:new    ;}
</style>
<g>
	<rect id="XMLID_116_" x="400" y="216" class="st0" width="1800" height="570"/>
	<g id="XMLID_409_">
		<path id="XMLID_449_" class="st1" d="M1554.7,493.1c-1.4,7.8-2.7,15.1-4.1,22.4c-4.1,21.2-9.1,42.2-18.1,62
			c-6.4,14.3-14.6,27.4-26.1,38.3c-3.4,3.2-7.1,6-11.1,8.4c-1.3,0.8-1.7,1.3-0.5,2.7c4.6,5.7,8.3,11.9,9.5,19.3
			c0.9,5.9-1.4,9.9-6.8,12.3c-0.7,0.3-1.3,0.6-2,0.9c-5.1,2.3-9.6,1.3-13.1-3.1c-2-2.5-3.5-5.4-4.9-8.3c-1-2-2-4-3.1-6
			c-3.6-6.5-3.9-6.7-11.2-5.2c-15.9,3.2-31.8,3-47.8,1.1c-13.6-1.7-27-4.8-40-9.1c-14.5-4.8-28.3-11.2-40.7-20.1
			c-4.2-3-8.4-2.3-12.7-1c-4.9,1.5-9.2,4.3-13.9,6.4c-4.2,1.9-8.5,4-13.4,2.3c-0.5-0.2-1.2-0.2-1.5-0.6c-2.7-3.8-6.9-6.6-7.4-11.8
			c-0.4-4.8,1.8-8.4,5.4-11.4c4.7-3.8,10.4-5.9,16-8.2c1.7-0.7,1.9-1.2,0.9-2.8c-10.1-15.9-13.1-33.4-11.9-51.9
			c1.3-20.5,6.7-40,13-59.4c3.4-10.6,6.8-21.3,10.4-31.9c0.8-2.5,0-2.7-2.1-2.2c-4.1,1-8.1,2.8-12.5,2.8c-5.8-0.1-8.4-2.3-8.5-8.2
			c0-0.8-0.2-1.3-0.5-2c-1.7-2.8-1.3-5,0.7-7.6c3.6-4.5,8.7-6,14.1-6.8c4.2-0.6,8.4-0.5,12.5,0.7c1.9,0.5,2.4-0.1,2.7-1.8
			c2.5-13.1,4.6-26.3,6.6-39.5c2.6-17.3,5.8-34.4,11.1-51.1c2.4-7.5,5.4-14.8,9-21.8c0.7-1.5,0.9-2.3-0.7-3.4
			c-5.3-3.9-9.7-8.6-11.2-15.2c-2.7-11.5,2.1-20.3,10.9-27.2c12-9.3,27.5-8.3,39,2.3c1.1,1,1.8,1.2,3.2,0.5
			c13-6.4,26.9-8.8,41.3-9.3c15.4-0.6,30.8,0.6,45.9,3.6c21,4.2,41.2,10.8,59.5,22.3c8.4,5.3,15.7,11.8,21.7,19.7
			c1.2,1.6,2.2,1.7,4,1.2c10.9-3.3,21-1.8,29.2,6.6c7.9,8,10.8,17.7,8,28.6c-2.8,10.7-10.7,16.1-21.1,18.1c-2.2,0.4-2.8,1-2.8,3.3
			c0.2,22.7-3.8,44.9-8.9,66.9c-3.8,16.5-7.6,33-11.5,49.5c-0.5,2.1,0,3,2.1,3.6c5.4,1.5,9.8,4.7,13.6,8.7c2.2,2.3,3.6,5.1,4.3,8.2
			c0.4,1.8,0.6,4-0.8,5.1c-2.3,1.9-3.6,4.5-5.6,6.6c-2.2,2.3-5,2.1-7.7,0.9c-3.1-1.3-5.6-3.4-7.9-5.8
			C1556.5,494.9,1555.7,494.1,1554.7,493.1z M1563.8,437.7c1.7-7,3.4-13.9,5.1-20.9c4.5-19,7.7-38.3,8.5-57.8
			c0.4-10.5,0.5-21-1.8-31.3c-5.1-23-18.3-40.4-38.5-52.6c-13.8-8.3-28.8-13.5-44.2-17.8c-18.6-5.2-37.7-6.8-56.9-6.5
			c-14.4,0.3-28.4,3-41.6,9.3c-17.7,8.6-29.7,22.6-38.6,39.7c-9.7,18.7-15,38.8-18.4,59.5c-2.4,14.8-4.7,29.5-7.2,44.3
			c-3.8,22.4-11.3,43.8-18.3,65.4c-6.2,19.1-11.8,38.3-13.5,58.5c-1.2,15,0.1,29.7,6.4,43.6c9,19.9,24.7,33.2,43.3,43.6
			c12.3,6.9,25.3,11.7,38.9,15.3c23.7,6.3,47.8,9.3,72.3,5.3c17.8-2.9,33.9-9.7,46.9-22.6c14.4-14.1,23.3-31.6,30-50.3
			c6.5-18.2,10.5-37,13.9-56C1554.2,483.5,1558,460.4,1563.8,437.7z M1601.4,329c1.1-3.9,0.9-8.3-0.4-12.8
			c-4.2-14.9-18.3-22.9-33.2-18.8c-2.2,0.6-2.4,1.2-1.1,3.1c1.7,2.6,3.2,5.4,4.5,8.2c0.7,1.4,1.5,2,3,2.1c4.8,0.3,7.2,2.2,8.4,6.4
			c1.3,4.3,0.2,7.3-3.4,10.1c-0.7,0.5-1.5,0.9-1.3,2.1c0.8,5.4,1.1,10.8,1.5,16.3c0.1,1,0.3,1.4,1.4,1.2
			C1589.4,345.4,1598.7,340.9,1601.4,329z M1377.6,252.4c-13.9-3.4-27.8,3.5-33.1,14.9c-5.4,11.8-0.3,21.8,9,28.7
			c1.1,0.8,1.5,0.3,2-0.6c1.6-2.7,3-5.6,4.9-7.9c1.8-2.2,1.5-3.4-0.4-5.4c-3.9-4.1-4-8.5-0.9-12.3c3.8-4.5,8.8-4.8,14.2-0.7
			c1.1,0.8,1.9,1.4,3.2,0.2c3.6-3.2,7.5-6,11.8-8.3c1.3-0.7,1.1-1.2,0.1-2.1C1384.9,255.6,1380.7,253.3,1377.6,252.4z M1328.3,604.3
			c-5.3-4.3-9.8-8.6-13.7-13.3c-1.4-1.7-2.6-4.3-4.4-4.8c-2-0.6-4.3,1.3-6.4,2.2c-4.6,1.9-9.3,3.8-12.9,7.5c-2.9,2.9-4,7.3-2.5,10.6
			c0.3,0.7,0.7,2.4,1.8,0.6c1.8-2.9,4.6-4.7,6.7-7.3c0.7-0.8,1.2-0.9,2-0.3c1.2,0.9,0.1,1.4-0.4,1.9c-1.7,1.8-3.5,3.5-5.2,5.4
			c-2.6,3-0.9,7.3,3,7.9c1.2,0.2,2.3,0.1,3.5-0.2c3.3-0.8,6.5-2.1,9.5-3.6C1315.2,608,1320.9,604.7,1328.3,604.3z M1471.9,634.6
			c3.4,3.8,5.5,8.1,7.5,12.3c1.3,2.8,2.8,5.6,4.8,8c2.6,3.2,5.3,4,8.7,2.9c1.3-0.4,1.7-1,1.4-2.4c-0.6-3-0.6-6.1-1.9-8.9
			c-0.4-0.9-0.4-1.5,0.5-2c1.3-0.7,1.3,0.6,1.6,1.1c1.4,2.8,1.5,5.9,1.9,8.9c0.2,1.6,0.7,1.5,1.8,0.8c3-1.9,4.4-6,3.2-10.6
			c-1.6-6.4-5-12-9-17.2c-0.7-1-1.3-1.1-2.4-0.5C1484.3,630.2,1478.4,632.6,1471.9,634.6z M1323.7,423.7c0.3-1.1,0.5-2.3,0.8-3.4
			c0.6-1.7,0.2-2.6-1.7-2.9c-4-0.8-7.9-1-12-0.4c-4.6,0.7-8.9,2-12.1,5.7c-1.1,1.3-2.3,2.7-1.2,4.5c1,1.7,2.6,0.7,3.8,0.3
			c1.1-0.3,1.5,0.2,1.9,0.9c0.5,1-0.6,1.1-1.1,1.4c-0.4,0.2-0.8,0.4-1.3,0.4c-2.4,0-2.4,1.4-2.1,3.2c0.4,1.9,1.7,2.9,3.5,3.3
			c2.7,0.5,5.3,0.3,8-0.3C1320.4,434.1,1321.4,433.2,1323.7,423.7z M1567.1,499.6c2.3,0.6,4-0.2,5.3-2.2c1.4-2.1-0.8-2.5-1.6-3.6
			c-0.4-0.6-1.7-1.1-0.5-2.1c0.8-0.7,1.5-0.4,2.2,0.4c0.9,0.8,1.6,2.3,3.3,1.3c1.7-1,1.3-2.5,1-4c-1.5-7.8-10.9-13.7-17.3-15.7
			c-1.4-0.4-1.5,0.5-1.6,1.4c-0.7,3.8-1.2,7.6-2.2,11.3c-0.7,2.7-0.2,4.6,1.9,6.5C1560.4,495.6,1563.1,498.5,1567.1,499.6z"/>
		<path id="XMLID_444_" class="st2" d="M1563.8,437.7c-5.7,22.7-9.6,45.7-13.8,68.7c-3.4,19-7.5,37.8-13.9,56
			c-6.7,18.7-15.6,36.2-30,50.3c-13,12.8-29.1,19.6-46.9,22.6c-24.5,4-48.5,1.1-72.3-5.3c-13.5-3.6-26.6-8.5-38.9-15.3
			c-18.6-10.4-34.3-23.7-43.3-43.6c-6.3-13.9-7.6-28.6-6.4-43.6c1.7-20.2,7.3-39.4,13.5-58.5c7-21.6,14.5-42.9,18.3-65.4
			c2.5-14.7,4.8-29.5,7.2-44.3c3.4-20.7,8.7-40.8,18.4-59.5c8.9-17.1,20.9-31.1,38.6-39.7c13.1-6.4,27.1-9.1,41.6-9.3
			c19.2-0.4,38.3,1.3,56.9,6.5c15.4,4.3,30.4,9.5,44.2,17.8c20.2,12.2,33.4,29.6,38.5,52.6c2.3,10.2,2.2,20.8,1.8,31.3
			c-0.8,19.6-3.9,38.8-8.5,57.8C1567.2,423.8,1565.5,430.8,1563.8,437.7z M1446.9,340.2c-5.2,0.2-9.6,1.9-13,5.9
			c-5.6,6.5-4.6,14.6,2.7,19.1c1.3,0.8,0.7,1.6,0.4,2.5c-1.7,5.1-2.3,10.3-0.7,15.6c1.6,5.4,5.6,7.3,10.8,5.1
			c1.5-0.6,2.9-1.5,4.3-2.2c0.8,1.3,1.4,2.7,2.2,3.9c2.4,3.4,5.6,4.1,9.6,3.2c3.5-0.8,5.1-2.9,6-6.1c0.9-3.5,1.8-6.9,2.2-10.5
			c0.2-2.2,0.9-2.6,3-1.7c4.9,2.1,9.2,0.9,13.1-3.2c3-3.2,3.5-7.6,1.3-12.2c-2.3-4.8-5.8-8.6-10-11.7c1.8-4.9,0.1-8.9-3.8-11.8
			c-6-4.5-12.8-5.7-20-3.7C1450.9,333.5,1448.1,336.1,1446.9,340.2z M1503.7,352.6c6,1.5,12,1.7,18.1,0.8
			c17.1-2.4,28.7-14.8,29.7-31.9c0.6-11.1-2.4-20.9-10.9-28.5c-13.9-12.4-36.4-13.4-51.5-2.6c-12.6,9.1-17.7,24.7-12.5,38.9
			C1481.3,342.2,1490.9,349.3,1503.7,352.6z M1460,306.4c1.9-9.2,0.4-20.1-8.2-29c-11.8-12.1-26.4-15.3-42.5-11.2
			c-12.6,3.2-21,11.5-24.3,24.1c-3.4,12.9-0.7,24.6,9,34c9.5,9.2,21.2,12.2,34.1,11C1443.9,334,1455.9,323.7,1460,306.4z"/>
		<path id="XMLID_443_" class="st2" d="M1601.4,329c-2.8,11.8-12,16.4-20.6,17.8c-1.1,0.2-1.4-0.2-1.4-1.2
			c-0.3-5.4-0.6-10.9-1.5-16.3c-0.2-1.2,0.6-1.5,1.3-2.1c3.6-2.8,4.7-5.8,3.4-10.1c-1.2-4.2-3.6-6.1-8.4-6.4c-1.5-0.1-2.3-0.6-3-2.1
			c-1.3-2.8-2.8-5.6-4.5-8.2c-1.3-1.9-1-2.5,1.1-3.1c14.9-4,29,3.9,33.2,18.8C1602.3,320.7,1602.6,325.2,1601.4,329z"/>
		<path id="XMLID_442_" class="st2" d="M1377.6,252.4c3.2,0.8,7.3,3.2,11,6.4c1,0.9,1.2,1.4-0.1,2.1c-4.2,2.3-8.2,5.1-11.8,8.3
			c-1.3,1.2-2.1,0.6-3.2-0.2c-5.5-4.1-10.5-3.8-14.2,0.7c-3.2,3.8-3,8.1,0.9,12.3c1.9,2,2.2,3.2,0.4,5.4c-2,2.4-3.4,5.2-4.9,7.9
			c-0.5,0.9-0.9,1.4-2,0.6c-9.3-6.9-14.4-17-9-28.7C1349.8,255.9,1363.7,249,1377.6,252.4z"/>
		<path id="XMLID_441_" class="st3" d="M1328.3,604.3c-7.4,0.4-13.1,3.7-19,6.6c-3,1.5-6.2,2.8-9.5,3.6c-1.1,0.3-2.3,0.4-3.5,0.2
			c-4-0.7-5.6-4.9-3-7.9c1.6-1.9,3.5-3.6,5.2-5.4c0.4-0.5,1.6-0.9,0.4-1.9c-0.8-0.6-1.3-0.5-2,0.3c-2.1,2.5-4.9,4.4-6.7,7.3
			c-1.1,1.8-1.5,0.1-1.8-0.6c-1.5-3.3-0.4-7.7,2.5-10.6c3.6-3.6,8.3-5.6,12.9-7.5c2.1-0.9,4.5-2.8,6.4-2.2c1.8,0.6,3,3.1,4.4,4.8
			C1318.5,595.7,1323,600,1328.3,604.3z"/>
		<path id="XMLID_440_" class="st3" d="M1471.9,634.6c6.5-1.9,12.5-4.3,18.1-7.4c1.1-0.6,1.7-0.4,2.4,0.5c4,5.2,7.4,10.8,9,17.2
			c1.2,4.6-0.2,8.7-3.2,10.6c-1.1,0.7-1.6,0.8-1.8-0.8c-0.4-3-0.6-6.1-1.9-8.9c-0.3-0.6-0.2-1.8-1.6-1.1c-1,0.5-0.9,1.1-0.5,2
			c1.3,2.8,1.3,5.9,1.9,8.9c0.3,1.3-0.1,1.9-1.4,2.4c-3.4,1.1-6.2,0.3-8.7-2.9c-2-2.4-3.5-5.2-4.8-8
			C1477.3,642.6,1475.2,638.4,1471.9,634.6z"/>
		<path id="XMLID_439_" class="st3" d="M1323.7,423.7c-2.3,9.5-3.3,10.4-13.4,12.7c-2.6,0.6-5.3,0.8-8,0.3c-1.8-0.4-3.1-1.3-3.5-3.3
			c-0.4-1.8-0.3-3.2,2.1-3.2c0.4,0,0.9-0.2,1.3-0.4c0.5-0.3,1.6-0.4,1.1-1.4c-0.3-0.7-0.8-1.2-1.9-0.9c-1.2,0.4-2.8,1.4-3.8-0.3
			c-1.1-1.8,0.1-3.2,1.2-4.5c3.2-3.7,7.5-5,12.1-5.7c4-0.6,8-0.4,12,0.4c1.9,0.4,2.3,1.2,1.7,2.9
			C1324.1,421.4,1324,422.5,1323.7,423.7z"/>
		<path id="XMLID_438_" class="st3" d="M1567.1,499.6c-3.9-1.1-6.7-3.9-9.6-6.6c-2.1-1.9-2.6-3.8-1.9-6.5c1-3.7,1.5-7.5,2.2-11.3
			c0.2-0.9,0.3-1.8,1.6-1.4c6.4,2,15.8,7.9,17.3,15.7c0.3,1.6,0.7,3-1,4s-2.5-0.5-3.3-1.3c-0.8-0.7-1.4-1.1-2.2-0.4
			c-1.2,1,0.1,1.5,0.5,2.1c0.7,1.1,3,1.5,1.6,3.6C1571,499.3,1569.4,500.2,1567.1,499.6z"/>
		<path id="XMLID_435_" class="st1" d="M1503.7,352.6c-12.8-3.3-22.5-10.4-27.1-23.2c-5.2-14.3-0.1-29.9,12.5-38.9
			c15.1-10.9,37.6-9.8,51.5,2.6c8.5,7.6,11.5,17.4,10.9,28.5c-1,17.1-12.6,29.5-29.7,31.9C1515.8,354.3,1509.7,354.1,1503.7,352.6z
			 M1504.2,350.6c5.4,1.1,10.7,1.7,16.1,0.9c12.7-1.9,22.9-7.7,27.1-20.5s2.7-25-7.1-35.1c-12.5-13-35.9-14.2-50.7-2.8
			c-11.7,9-16.5,24.1-9.6,38.6C1484.9,342,1493.6,347.6,1504.2,350.6z"/>
		<path id="XMLID_432_" class="st1" d="M1460,306.4c-4.1,17.3-16.1,27.6-31.8,29c-12.9,1.2-24.6-1.8-34.1-11
			c-9.7-9.4-12.4-21.1-9-34c3.3-12.6,11.7-20.9,24.3-24.1c16.1-4.1,30.7-0.9,42.5,11.2C1460.5,286.3,1462,297.2,1460,306.4z
			 M1386.9,292.3c-2.3,11.3-0.3,20.9,6.9,28.7c11.2,12,25.3,15.1,40.8,11c26.2-7,29.8-38.6,15.2-53.5c-11.6-11.8-32.8-15.1-47.7-6.7
			C1393.6,276.5,1388.7,283.8,1386.9,292.3z"/>
		<path id="XMLID_431_" class="st4" d="M1446.9,340.2c1.2-4.1,4-6.7,8-7.8c7.2-2,14-0.7,20,3.7c3.9,2.9,5.6,6.9,3.8,11.8
			c-0.7,0.3-1.1,0.9-1.5,1.6c-6.6,4-13.5,3.1-20.4,1.1c-4.4-1.3-8.4-3.1-10.1-7.9C1446.9,341.8,1446.9,341,1446.9,340.2z"/>
		<path id="XMLID_427_" class="st1" d="M1446.9,340.2c0,0.8,0,1.6-0.1,2.4c-5.5-0.5-11.1,2.6-13.4,7.6c-2.5,5.5-1.1,13.9,8.1,13.7
			c2.6,0,5.2-0.1,7.7-0.5c6.8-1,12.9,0.5,18.4,4.8c2,1.6,4.1,2.9,6.2,4.2c3.8,2.2,7.7,1.7,11.1-1.4c3-2.7,3.7-6.2,1.8-10.2
			c-2.2-4.6-5.5-8.3-9.6-11.4c0.4-0.6,0.8-1.3,1.5-1.6c4.2,3.1,7.7,6.9,10,11.7c2.2,4.6,1.8,9-1.3,12.2c-3.9,4.1-8.1,5.3-13.1,3.2
			c-2.2-0.9-2.8-0.4-3,1.7c-0.4,3.6-1.3,7-2.2,10.5c-0.8,3.2-2.5,5.3-6,6.1c-4,0.9-7.2,0.2-9.6-3.2c-0.9-1.2-1.5-2.6-2.2-3.9
			c-1.4,0.7-2.8,1.6-4.3,2.2c-5.3,2.2-9.2,0.3-10.8-5.1c-1.6-5.3-0.9-10.4,0.7-15.6c0.3-0.9,0.9-1.6-0.4-2.5
			c-7.3-4.5-8.3-12.6-2.7-19.1C1437.4,342.1,1441.8,340.4,1446.9,340.2z M1455.7,375.4c-0.6,2.4-1,4.4-1.6,6.5
			c-1,3.7,0.5,6.4,3.3,8.6c2.9,2.3,8.3,0.5,9.4-3c1.4-4.5,2.2-9.2,2.9-13.9c0.1-0.6,0.3-1.2-0.4-1.6c-2.8-2-5.5-4.2-8.9-5.4
			c-1.3-0.5-1.9-0.2-2.3,1.2C1457.4,370.4,1456.5,373,1455.7,375.4z M1455.8,365.4c-5.2,0.3-10,0.6-14.7,0.8c-0.8,0-1.1,0.4-1.3,1
			c-2.1,5-2.7,10.2-1.2,15.5c0.6,2.2,1.8,4.1,4.6,4.2c2.5,0.1,7.3-2.2,7.7-4C1452,377.1,1453.6,371.4,1455.8,365.4z"/>
		<path id="XMLID_424_" class="st5" d="M1504.2,350.6c-10.6-3-19.3-8.6-24.3-19c-6.9-14.5-2.1-29.6,9.6-38.6
			c14.9-11.5,38.2-10.2,50.7,2.8c9.8,10.1,11.3,22.3,7.1,35.1c-4.2,12.8-14.3,18.6-27.1,20.5C1515,352.2,1509.6,351.7,1504.2,350.6z
			 M1505.2,319.2c1.5-6.4-2-12.9-7.8-14.2c-5.8-1.4-11.8,2.7-13.3,9.2c-1.6,6.5,1.9,12.8,7.7,14.2
			C1497.6,329.7,1503.6,325.6,1505.2,319.2z"/>
		<path id="XMLID_421_" class="st5" d="M1386.9,292.3c1.8-8.5,6.7-15.8,15.2-20.6c14.9-8.4,36-5.1,47.7,6.7
			c14.6,14.9,11.1,46.6-15.2,53.5c-15.5,4.1-29.6,1-40.8-11C1386.6,313.2,1384.6,303.6,1386.9,292.3z M1393.2,295
			c-1.6,6.4,2,12.9,7.9,14.4c5.8,1.4,11.9-2.6,13.5-8.9c1.7-6.5-1.7-12.9-7.7-14.4C1400.9,284.5,1394.8,288.5,1393.2,295z"/>
		<path id="XMLID_420_" class="st3" d="M1477.3,349.4c4.1,3.1,7.4,6.7,9.6,11.4c1.9,4.1,1.3,7.5-1.8,10.2c-3.4,3.1-7.3,3.6-11.1,1.4
			c-2.2-1.3-4.3-2.6-6.2-4.2c-5.4-4.3-11.5-5.8-18.4-4.8c-2.6,0.4-5.2,0.4-7.7,0.5c-9.2,0.2-10.7-8.2-8.1-13.7
			c2.3-5,7.9-8.1,13.4-7.6c1.7,4.7,5.7,6.6,10.1,7.9C1463.9,352.5,1470.7,353.4,1477.3,349.4z"/>
		<path id="XMLID_419_" class="st5" d="M1455.7,375.4c0.8-2.4,1.7-5,2.5-7.6c0.4-1.3,1-1.6,2.3-1.2c3.3,1.2,6,3.4,8.9,5.4
			c0.7,0.5,0.5,1,0.4,1.6c-0.7,4.7-1.5,9.4-2.9,13.9c-1.1,3.5-6.5,5.2-9.4,3c-2.8-2.2-4.3-4.9-3.3-8.6
			C1454.6,379.8,1455.1,377.7,1455.7,375.4z"/>
		<path id="XMLID_418_" class="st5" d="M1455.8,365.4c-2.2,6-3.8,11.6-5,17.4c-0.4,1.9-5.2,4.1-7.7,4c-2.7-0.1-3.9-2-4.6-4.2
			c-1.5-5.3-0.8-10.4,1.2-15.5c0.3-0.6,0.6-1,1.3-1C1445.9,366,1450.6,365.7,1455.8,365.4z"/>
		<path id="XMLID_415_" class="st4" d="M1505.2,319.2c-1.5,6.4-7.6,10.5-13.4,9.2c-5.8-1.4-9.3-7.7-7.7-14.2
			c1.6-6.5,7.5-10.6,13.3-9.2C1503.2,306.3,1506.7,312.8,1505.2,319.2z M1501.3,321c0.1-1.5-0.1-3.1-1.9-3.4
			c-1.7-0.3-2.7,0.8-3.1,2.3c-0.4,1.6,0,3.2,1.9,3.5C1500,323.8,1500.8,322.4,1501.3,321z"/>
		<path id="XMLID_412_" class="st4" d="M1393.2,295c1.6-6.5,7.7-10.4,13.7-8.9s9.4,7.9,7.7,14.4c-1.6,6.3-7.7,10.3-13.5,8.9
			C1395.2,307.9,1391.6,301.4,1393.2,295z M1410.7,302.2c0.2-1.5,0.1-3-1.6-3.5c-1.9-0.6-2.9,0.5-3.4,2.2c-0.4,1.7,0,3.2,1.8,3.6
			C1409.2,304.8,1410.1,303.6,1410.7,302.2z"/>
		<path id="XMLID_411_" class="st5" d="M1501.3,321c-0.5,1.4-1.3,2.8-3,2.5c-1.9-0.3-2.3-1.9-1.9-3.5c0.3-1.5,1.4-2.7,3.1-2.3
			C1501.2,318,1501.4,319.5,1501.3,321z"/>
		<path id="XMLID_410_" class="st5" d="M1410.7,302.2c-0.6,1.5-1.5,2.7-3.2,2.3c-1.8-0.4-2.3-2-1.8-3.6c0.4-1.7,1.5-2.7,3.4-2.2
			C1410.8,299.2,1410.9,300.7,1410.7,302.2z"/>
	</g>
	<g id="XMLID_5_">
		<path id="XMLID_408_" class="st6" d="M1090.1,752.5c-46.4-10.1-75.1-89.4-17.5-143c57-52.9-13.1-82.1,8.2-167.9
			c20.7-83.7,208.3-131.7,295.8-31c78.8,90.6,136,71.7,174.5,142.3c45.3,83,12.2,181.7-61,199.1
			C1423,752.1,1090.1,752.5,1090.1,752.5z"/>
		<g id="XMLID_372_">
			<path id="XMLID_373_" class="st7" d="M1259.1,624.9v-0.5c1.4,0,2.8-0.1,4.3-0.2l0.1,0.5C1262,624.8,1260.5,624.9,1259.1,624.9z
				 M1254.8,624.7c-1.4-0.1-2.9-0.3-4.3-0.6l0.1-0.5c1.4,0.3,2.8,0.5,4.2,0.6L1254.8,624.7L1254.8,624.7z M1267.6,624.1l-0.1-0.5
				c1.4-0.3,2.8-0.6,4.1-1l0.2,0.5C1270.5,623.5,1269,623.8,1267.6,624.1z M1246.3,623.1c-1.4-0.4-2.7-0.8-4.1-1.4l0.2-0.5
				c1.3,0.5,2.7,1,4,1.3L1246.3,623.1z M1275.9,621.8l-0.2-0.5c1.3-0.5,2.6-1.1,3.9-1.7l0.2,0.5
				C1278.6,620.7,1277.2,621.2,1275.9,621.8z M1238.3,620c-1.3-0.6-2.5-1.3-3.8-2.1l0.3-0.5c1.2,0.7,2.5,1.4,3.7,2.1L1238.3,620z
				 M1283.6,617.9l-0.3-0.5c1.2-0.7,2.4-1.6,3.5-2.4l0.3,0.4C1286,616.3,1284.8,617.2,1283.6,617.9z M1231,615.5
				c-1.1-0.9-2.3-1.8-3.3-2.8l0.4-0.4c1,1,2.1,1.9,3.3,2.7L1231,615.5z M1290.5,612.7l-0.4-0.4c1-1,2.1-2,3-3l0.4,0.4
				C1292.6,610.7,1291.5,611.8,1290.5,612.7z M1224.6,609.7c-1-1.1-1.9-2.2-2.8-3.3l0.4-0.3c0.9,1.1,1.8,2.2,2.7,3.3L1224.6,609.7z
				 M1296.3,606.4l-0.4-0.3c0.9-1.1,1.7-2.3,2.4-3.5l0.5,0.3C1297.9,604,1297.1,605.2,1296.3,606.4z M1219.4,602.9
				c-0.8-1.2-1.5-2.5-2.1-3.8l0.5-0.2c0.6,1.3,1.3,2.5,2.1,3.7L1219.4,602.9z M1300.8,599l-0.5-0.2c0.6-1.3,1.2-2.6,1.7-3.9l0.5,0.2
				C1302,596.4,1301.4,597.8,1300.8,599z M1215.6,595.2c-0.5-1.3-1-2.7-1.4-4.1l0.5-0.2c0.4,1.4,0.8,2.7,1.4,4L1215.6,595.2z
				 M1303.9,591l-0.5-0.1c0.4-1.4,0.7-2.8,1-4.1l0.5,0.1C1304.6,588.2,1304.3,589.7,1303.9,591z M1213.2,586.9
				c-0.3-1.4-0.5-2.8-0.6-4.3l0.5-0.1c0.1,1.4,0.3,2.8,0.6,4.2L1213.2,586.9z M1305.5,582.6l-0.5-0.1c0.1-1.4,0.2-2.8,0.2-4.3v-0.1
				h0.6v0.1C1305.7,579.7,1305.6,581.2,1305.5,582.6z M1213,578.3h-0.5v-0.1c0-1.4,0.1-2.8,0.2-4.2h0.5
				C1213,575.5,1213,576.9,1213,578.3L1213,578.3z M1304.9,573.9c-0.1-1.4-0.3-2.8-0.6-4.2l0.5-0.1c0.3,1.4,0.5,2.8,0.6,4.3H1304.9z
				 M1213.7,569.9l-0.5-0.1c0.3-1.4,0.6-2.8,1-4.2l0.5,0.1C1214.3,567.1,1214,568.5,1213.7,569.9z M1303.3,565.6
				c-0.4-1.4-0.8-2.7-1.4-4l0.5-0.2c0.5,1.3,1,2.7,1.4,4.1L1303.3,565.6z M1216,561.7l-0.5-0.2c0.5-1.3,1.1-2.7,1.7-3.9l0.5,0.2
				C1217.1,559,1216.6,560.4,1216,561.7z M1300.3,557.6c-0.6-1.3-1.3-2.5-2.1-3.7l0.5-0.3c0.8,1.2,1.5,2.5,2.1,3.8L1300.3,557.6z
				 M1219.8,554.1l-0.5-0.3c0.8-1.2,1.6-2.4,2.4-3.6l0.4,0.3C1221.4,551.7,1220.6,552.9,1219.8,554.1z M1295.8,550.4
				c-0.9-1.1-1.8-2.2-2.7-3.3l0.4-0.4c1,1.1,1.9,2.2,2.8,3.3L1295.8,550.4z M1225,547.3l-0.4-0.4c1-1.1,2-2.1,3-3l0.4,0.4
				C1226.9,545.2,1225.9,546.2,1225,547.3z M1290,544.2c-1-1-2.1-1.9-3.3-2.7l0.3-0.4c1.1,0.9,2.3,1.8,3.3,2.7L1290,544.2z
				 M1231.2,541.5l-0.3-0.4c1.1-0.9,2.3-1.7,3.5-2.4l0.3,0.5C1233.5,539.9,1232.4,540.7,1231.2,541.5z M1283.2,539
				c-1.2-0.7-2.5-1.4-3.7-2.1l0.2-0.5c1.3,0.6,2.5,1.3,3.8,2.1L1283.2,539z M1238.4,537l-0.2-0.5c1.3-0.6,2.6-1.2,3.9-1.7l0.2,0.5
				C1241,535.8,1239.7,536.4,1238.4,537z M1275.6,535.3c-1.3-0.5-2.7-1-4-1.3l0.1-0.5c1.4,0.4,2.8,0.8,4.1,1.4L1275.6,535.3z
				 M1246.4,534l-0.2-0.5c1.4-0.4,2.8-0.7,4.2-1l0.1,0.5C1249.1,533.2,1247.7,533.6,1246.4,534z M1267.4,533
				c-1.4-0.3-2.8-0.4-4.2-0.6v-0.5c1.4,0.1,2.9,0.3,4.3,0.6L1267.4,533z M1254.7,532.4l-0.1-0.5c1.4-0.1,2.9-0.2,4.3-0.2v0.5
				C1257.5,532.2,1256.1,532.3,1254.7,532.4z"/>
		</g>
		<g id="XMLID_338_">
			<path id="XMLID_339_" class="st7" d="M1382.7,579.8v-0.5c1.4,0,2.8-0.1,4.3-0.2l0.1,0.5C1385.6,579.8,1384.2,579.8,1382.7,579.8z
				 M1378.4,579.6c-1.4-0.1-2.9-0.3-4.3-0.6l0.1-0.5c1.4,0.3,2.8,0.5,4.2,0.6L1378.4,579.6L1378.4,579.6z M1391.3,579l-0.1-0.5
				c1.4-0.3,2.8-0.6,4.1-1l0.2,0.5C1394.1,578.4,1392.7,578.8,1391.3,579z M1370,578.1c-1.4-0.4-2.7-0.8-4.1-1.4l0.2-0.5
				c1.3,0.5,2.7,1,4,1.3L1370,578.1z M1399.6,576.7l-0.2-0.5c1.3-0.5,2.6-1.1,3.9-1.7l0.2,0.5
				C1402.2,575.6,1400.9,576.2,1399.6,576.7z M1361.9,575c-1.3-0.6-2.5-1.3-3.8-2.1l0.3-0.5c1.2,0.7,2.5,1.4,3.7,2.1L1361.9,575z
				 M1407.3,572.8l-0.3-0.5c1.2-0.7,2.4-1.6,3.5-2.4l0.3,0.4C1409.7,571.3,1408.5,572.1,1407.3,572.8z M1354.6,570.4
				c-1.1-0.9-2.3-1.8-3.3-2.8l0.4-0.4c1,1,2.1,1.9,3.3,2.7L1354.6,570.4z M1414.1,567.7l-0.4-0.4c1-1,2.1-2,3-3l0.4,0.4
				C1416.2,565.7,1415.2,566.7,1414.1,567.7z M1348.3,564.6c-1-1.1-1.9-2.2-2.8-3.3l0.4-0.3c0.9,1.1,1.8,2.2,2.7,3.3L1348.3,564.6z
				 M1343.1,557.8c-0.8-1.2-1.5-2.5-2.1-3.8l0.5-0.2c0.6,1.3,1.3,2.5,2.1,3.7L1343.1,557.8z M1424.4,554l-0.5-0.2
				c0.6-1.3,1.2-2.6,1.7-3.9l0.5,0.2C1425.7,551.4,1425.1,552.7,1424.4,554z M1339.2,550.1c-0.5-1.3-1-2.7-1.4-4.1l0.5-0.2
				c0.4,1.4,0.8,2.7,1.4,4L1339.2,550.1z M1427.5,546l-0.5-0.2c0.4-1.4,0.7-2.8,1-4.1l0.5,0.1C1428.3,543.2,1427.9,544.6,1427.5,546
				z M1336.9,541.8c-0.3-1.4-0.5-2.8-0.6-4.3l0.5-0.1c0.1,1.4,0.3,2.8,0.6,4.2L1336.9,541.8z M1429.1,537.5l-0.5-0.1
				c0.1-1.4,0.2-2.8,0.2-4.3V533h0.6v0.1C1429.3,534.6,1429.3,536.1,1429.1,537.5z M1336.6,533.3h-0.5v-0.1c0-1.4,0.1-2.8,0.2-4.2
				h0.5C1336.7,530.4,1336.6,531.8,1336.6,533.3L1336.6,533.3z M1428.6,528.8c-0.1-1.4-0.3-2.8-0.6-4.2l0.5-0.1
				c0.3,1.4,0.5,2.8,0.6,4.3H1428.6z M1337.4,524.8l-0.5-0.1c0.3-1.4,0.6-2.8,1-4.2l0.5,0.1C1338,522,1337.6,523.4,1337.4,524.8z
				 M1427,520.5c-0.4-1.4-0.8-2.7-1.4-4l0.5-0.2c0.5,1.3,1,2.7,1.4,4.1L1427,520.5z M1339.7,516.6l-0.5-0.2c0.5-1.3,1.1-2.7,1.7-3.9
				l0.5,0.2C1340.8,514,1340.2,515.3,1339.7,516.6z M1343.5,509l-0.5-0.3c0.8-1.2,1.6-2.4,2.4-3.6l0.4,0.3
				C1345,506.6,1344.2,507.8,1343.5,509z M1419.4,505.4c-0.9-1.1-1.8-2.2-2.7-3.3l0.4-0.4c1,1.1,1.9,2.2,2.8,3.3L1419.4,505.4z
				 M1348.6,502.2l-0.4-0.4c1-1.1,2-2.1,3-3l0.4,0.4C1350.6,500.1,1349.5,501.2,1348.6,502.2z M1413.7,499.1c-1-1-2.1-1.9-3.3-2.7
				l0.3-0.4c1.1,0.9,2.3,1.8,3.3,2.7L1413.7,499.1z M1354.9,496.5l-0.3-0.4c1.1-0.9,2.3-1.7,3.5-2.4l0.3,0.5
				C1357.2,494.8,1356,495.6,1354.9,496.5z M1406.9,494c-1.2-0.7-2.5-1.4-3.7-2.1l0.2-0.5c1.3,0.6,2.5,1.3,3.8,2.1L1406.9,494z
				 M1362.1,492l-0.2-0.5c1.3-0.6,2.6-1.2,3.9-1.7l0.2,0.5C1364.7,490.8,1363.3,491.3,1362.1,492z M1399.3,490.2
				c-1.3-0.5-2.7-1-4-1.3l0.1-0.5c1.4,0.4,2.8,0.8,4.1,1.4L1399.3,490.2z M1370,488.9l-0.2-0.5c1.4-0.4,2.8-0.7,4.2-1l0.1,0.5
				C1372.8,488.2,1371.4,488.5,1370,488.9z M1391.1,487.9c-1.4-0.3-2.8-0.4-4.2-0.6v-0.5c1.4,0.1,2.9,0.3,4.3,0.6L1391.1,487.9z
				 M1378.4,487.3l-0.1-0.5c1.4-0.1,2.9-0.2,4.3-0.2v0.5C1381.2,487.1,1379.8,487.2,1378.4,487.3z"/>
		</g>
		<g id="XMLID_302_">
			<path id="XMLID_303_" class="st7" d="M1141.8,707.4v-0.9c2.4,0,4.8-0.1,7.2-0.3l0.1,0.9C1146.7,707.3,1144.3,707.4,1141.8,707.4z
				 M1134.6,707.1c-2.4-0.2-4.8-0.6-7.2-1l0.2-0.9c2.3,0.4,4.7,0.8,7.1,1L1134.6,707.1z M1156.3,706l-0.2-0.9c2.4-0.4,4.7-1,7-1.6
				l0.3,0.9C1161.1,705,1158.7,705.6,1156.3,706z M1120.3,704.4c-2.3-0.7-4.7-1.4-6.9-2.3l0.3-0.9c2.2,0.9,4.5,1.6,6.8,2.3
				L1120.3,704.4z M1170.3,702.1l-0.3-0.9c2.2-0.9,4.4-1.8,6.6-2.9l0.4,0.8C1174.8,700.2,1172.6,701.2,1170.3,702.1z M1106.7,699.1
				c-2.2-1.1-4.3-2.3-6.4-3.5l0.5-0.8c2,1.3,4.2,2.4,6.3,3.5L1106.7,699.1z M1183.4,695.6l-0.5-0.8c2-1.3,4-2.6,5.9-4.1l0.6,0.7
				C1187.4,692.9,1185.4,694.3,1183.4,695.6z M1094.3,691.5c-1.9-1.5-3.8-3-5.6-4.7l0.6-0.7c1.8,1.6,3.6,3.2,5.5,4.6L1094.3,691.5z
				 M1195,686.8l-0.6-0.7c1.8-1.6,3.5-3.3,5.1-5.1l0.7,0.6C1198.5,683.4,1196.8,685.1,1195,686.8z M1083.5,681.7
				c-1.6-1.8-3.2-3.7-4.7-5.6l0.7-0.6c1.4,1.9,3,3.8,4.6,5.5L1083.5,681.7z M1204.8,676l-0.7-0.6c1.4-1.9,2.8-3.9,4.1-5.9l0.8,0.5
				C1207.6,672.1,1206.3,674.1,1204.8,676z M1074.7,670.1c-1.3-2.1-2.5-4.2-3.6-6.4l0.8-0.4c1.1,2.1,2.3,4.3,3.5,6.3L1074.7,670.1z
				 M1212.5,663.6l-0.8-0.4c1.1-2.1,2-4.4,2.9-6.6l0.9,0.3C1214.5,659.2,1213.5,661.5,1212.5,663.6z M1068.2,657.1
				c-0.9-2.3-1.7-4.6-2.3-6.9l0.9-0.3c0.7,2.3,1.4,4.6,2.3,6.8L1068.2,657.1z M1217.7,650.1l-0.9-0.3c0.7-2.3,1.2-4.7,1.6-7l0.9,0.2
				C1218.9,645.3,1218.4,647.7,1217.7,650.1z M1064.2,643.1c-0.4-2.4-0.8-4.8-1-7.2l0.9-0.1c0.2,2.4,0.6,4.8,1,7.1L1064.2,643.1z
				 M1220.4,635.7l-0.9-0.1c0.2-2.4,0.3-4.8,0.3-7.2v-0.2h0.9v0.2C1220.7,630.9,1220.6,633.3,1220.4,635.7z M1063.8,628.6h-0.9v-0.1
				c0-2.4,0.1-4.8,0.3-7.2l0.9,0.1C1063.9,623.7,1063.8,626.1,1063.8,628.6L1063.8,628.6z M1219.4,621.1c-0.2-2.4-0.6-4.8-1-7.1
				l0.9-0.2c0.4,2.4,0.8,4.8,1,7.2L1219.4,621.1z M1065.1,614.2l-0.9-0.2c0.4-2.4,1-4.8,1.7-7.1l0.9,0.3
				C1066.1,609.5,1065.6,611.9,1065.1,614.2z M1216.8,607c-0.7-2.3-1.4-4.6-2.3-6.8l0.9-0.3c0.9,2.3,1.7,4.6,2.3,6.9L1216.8,607z
				 M1069,600.4l-0.9-0.3c0.9-2.3,1.9-4.5,2.9-6.7l0.8,0.4C1070.9,595.9,1069.9,598.2,1069,600.4z M1211.6,593.6
				c-1.1-2.1-2.3-4.2-3.5-6.3l0.8-0.5c1.3,2.1,2.5,4.2,3.6,6.4L1211.6,593.6z M1075.4,587.5l-0.8-0.5c1.3-2.1,2.7-4.1,4.1-6l0.7,0.6
				C1078.1,583.5,1076.7,585.5,1075.4,587.5z M1203.9,581.3c-1.4-1.9-3-3.8-4.6-5.5l0.7-0.6c1.6,1.8,3.2,3.7,4.7,5.6L1203.9,581.3z
				 M1084.1,576l-0.7-0.6c1.6-1.8,3.4-3.5,5.1-5.2l0.6,0.7C1087.4,572.5,1085.7,574.2,1084.1,576z M1194.2,570.7
				c-1.8-1.6-3.6-3.2-5.5-4.6l0.6-0.7c1.9,1.5,3.8,3,5.6,4.6L1194.2,570.7z M1094.7,566.3l-0.6-0.7c1.9-1.5,3.9-2.9,6-4.1l0.5,0.8
				C1098.6,563.5,1096.6,564.9,1094.7,566.3z M1182.7,562.1c-2-1.3-4.2-2.4-6.3-3.5l0.4-0.8c2.2,1.1,4.3,2.3,6.4,3.5L1182.7,562.1z
				 M1106.9,558.7l-0.4-0.8c2.2-1.1,4.4-2.1,6.7-3l0.3,0.9C1111.3,556.6,1109.1,557.6,1106.9,558.7z M1169.8,555.7
				c-2.2-0.9-4.5-1.6-6.8-2.3l0.3-0.9c2.3,0.7,4.7,1.4,6.9,2.3L1169.8,555.7z M1120.3,553.5l-0.3-0.9c2.3-0.7,4.7-1.2,7.1-1.7
				l0.2,0.9C1125,552.3,1122.6,552.8,1120.3,553.5z M1156,551.8c-2.3-0.4-4.7-0.8-7.1-1l0.1-0.9c2.4,0.2,4.8,0.5,7.2,1L1156,551.8z
				 M1134.5,550.8l-0.1-0.9c2.4-0.2,4.9-0.3,7.3-0.3v0.9C1139.3,550.5,1136.8,550.6,1134.5,550.8z"/>
		</g>
		<g id="XMLID_268_">
			<path id="XMLID_269_" class="st7" d="M1414.1,748.1v-0.9c2.4,0,4.8-0.1,7.2-0.3l0.1,0.9C1419,748,1416.5,748.1,1414.1,748.1z
				 M1406.8,747.8c-2.4-0.2-4.8-0.6-7.2-1l0.2-0.9c2.3,0.4,4.7,0.8,7.1,1L1406.8,747.8z M1428.6,746.7l-0.2-0.9c2.4-0.4,4.7-1,7-1.6
				l0.3,0.9C1433.3,745.7,1431,746.3,1428.6,746.7z M1392.5,745.1c-2.3-0.7-4.7-1.4-6.9-2.3l0.3-0.9c2.2,0.9,4.5,1.6,6.8,2.3
				L1392.5,745.1z M1442.6,742.8l-0.3-0.9c2.2-0.9,4.4-1.8,6.6-2.9l0.4,0.8C1447.1,740.9,1444.8,741.9,1442.6,742.8z M1378.9,739.8
				c-2.2-1.1-4.3-2.3-6.4-3.5l0.5-0.8c2,1.3,4.2,2.4,6.3,3.5L1378.9,739.8z M1455.6,736.3l-0.5-0.8c2-1.3,4-2.6,5.9-4.1l0.6,0.7
				C1459.7,733.6,1457.7,735,1455.6,736.3z M1366.5,732.2c-1.9-1.5-3.8-3-5.6-4.7l0.6-0.7c1.8,1.6,3.6,3.2,5.5,4.6L1366.5,732.2z
				 M1467.2,727.5l-0.6-0.7c1.8-1.6,3.5-3.3,5.1-5.1l0.7,0.6C1470.7,724.1,1469,725.8,1467.2,727.5z M1355.8,722.4
				c-1.6-1.8-3.2-3.7-4.7-5.6l0.7-0.6c1.4,1.9,3,3.8,4.6,5.5L1355.8,722.4z M1477,716.7l-0.7-0.6c1.4-1.9,2.8-3.9,4.1-5.9l0.8,0.5
				C1479.9,712.8,1478.5,714.8,1477,716.7z M1347,710.8c-1.3-2.1-2.5-4.2-3.6-6.4l0.8-0.4c1.1,2.1,2.3,4.3,3.5,6.3L1347,710.8z
				 M1484.7,704.3l-0.8-0.4c1.1-2.1,2-4.4,2.9-6.6l0.9,0.3C1486.8,699.9,1485.8,702.2,1484.7,704.3z M1340.5,697.8
				c-0.9-2.3-1.7-4.6-2.3-6.9l0.9-0.3c0.7,2.3,1.4,4.6,2.3,6.8L1340.5,697.8z M1490,690.8l-0.9-0.3c0.7-2.3,1.2-4.7,1.6-7l0.9,0.2
				C1491.2,686,1490.6,688.4,1490,690.8z M1336.5,683.8c-0.4-2.4-0.8-4.8-1-7.2l0.9-0.1c0.2,2.4,0.6,4.8,1,7.1L1336.5,683.8z
				 M1336.1,669.3h-0.9v-0.1c0-2.4,0.1-4.8,0.3-7.2l0.9,0.1C1336.2,664.4,1336.1,666.8,1336.1,669.3L1336.1,669.3z M1491.7,661.8
				c-0.2-2.4-0.6-4.8-1-7.1l0.9-0.2c0.4,2.4,0.8,4.8,1,7.2L1491.7,661.8z M1337.4,654.9l-0.9-0.2c0.4-2.4,1-4.8,1.7-7.1l0.9,0.3
				C1338.3,650.2,1337.8,652.6,1337.4,654.9z M1489,647.7c-0.7-2.3-1.4-4.6-2.3-6.8l0.9-0.3c0.9,2.3,1.7,4.6,2.3,6.9L1489,647.7z
				 M1341.3,641.1l-0.9-0.3c0.9-2.3,1.9-4.5,2.9-6.7l0.8,0.4C1343.1,636.6,1342.1,638.9,1341.3,641.1z M1483.8,634.3
				c-1.1-2.1-2.3-4.2-3.5-6.3l0.8-0.5c1.3,2.1,2.5,4.2,3.6,6.4L1483.8,634.3z M1347.7,628.2l-0.8-0.5c1.3-2.1,2.7-4.1,4.1-6l0.7,0.6
				C1350.3,624.2,1348.9,626.2,1347.7,628.2z M1476.2,622c-1.4-1.9-3-3.8-4.6-5.5l0.7-0.6c1.6,1.8,3.2,3.7,4.7,5.6L1476.2,622z
				 M1356.3,616.7l-0.7-0.6c1.6-1.8,3.4-3.5,5.1-5.2l0.6,0.7C1359.7,613.2,1357.9,614.9,1356.3,616.7z M1366.9,607l-0.6-0.7
				c1.9-1.5,3.9-2.9,6-4.1l0.5,0.8C1370.9,604.2,1368.9,605.6,1366.9,607z M1455,602.8c-2-1.3-4.2-2.4-6.3-3.5l0.4-0.8
				c2.2,1.1,4.3,2.3,6.4,3.5L1455,602.8z M1379.2,599.4l-0.4-0.8c2.2-1.1,4.4-2.1,6.7-3l0.3,0.9
				C1383.5,597.3,1381.3,598.3,1379.2,599.4z M1442.1,596.4c-2.2-0.9-4.5-1.6-6.8-2.3l0.3-0.9c2.3,0.7,4.7,1.4,6.9,2.3L1442.1,596.4
				z M1392.6,594.2l-0.3-0.9c2.3-0.7,4.7-1.2,7.1-1.7l0.2,0.9C1397.2,593,1394.9,593.5,1392.6,594.2z M1428.2,592.5
				c-2.3-0.4-4.7-0.8-7.1-1l0.1-0.9c2.4,0.2,4.8,0.5,7.2,1L1428.2,592.5z M1406.7,591.5l-0.1-0.9c2.4-0.2,4.9-0.3,7.3-0.3v0.9
				C1411.5,591.2,1409.1,591.3,1406.7,591.5z"/>
		</g>
		<g id="XMLID_232_">
			<path id="XMLID_233_" class="st7" d="M1236.7,600.9v-0.7c1.9,0,3.8-0.1,5.7-0.3l0.1,0.7C1240.6,600.8,1238.7,600.9,1236.7,600.9z
				 M1231,600.6c-1.9-0.2-3.8-0.4-5.7-0.8l0.1-0.7c1.9,0.3,3.8,0.6,5.7,0.8L1231,600.6z M1248.2,599.8l-0.1-0.7
				c1.9-0.3,3.7-0.8,5.6-1.3l0.2,0.7C1252,599,1250.1,599.5,1248.2,599.8z M1219.6,598.5c-1.8-0.5-3.7-1.1-5.5-1.8l0.3-0.7
				c1.8,0.7,3.6,1.3,5.4,1.8L1219.6,598.5z M1259.3,596.7l-0.3-0.7c1.8-0.7,3.5-1.5,5.2-2.3l0.3,0.7
				C1262.9,595.2,1261.1,596,1259.3,596.7z M1208.9,594.4c-1.7-0.9-3.4-1.8-5-2.8l0.4-0.6c1.6,1,3.3,1.9,5,2.8L1208.9,594.4z
				 M1269.6,591.5l-0.4-0.6c1.6-1,3.2-2.1,4.7-3.2l0.4,0.6C1272.9,589.4,1271.3,590.5,1269.6,591.5z M1199,588.3
				c-1.5-1.2-3-2.4-4.4-3.7l0.5-0.5c1.4,1.3,2.9,2.5,4.4,3.6L1199,588.3z M1278.8,584.5l-0.5-0.5c1.4-1.3,2.8-2.6,4-4l0.5,0.5
				C1281.6,581.9,1280.3,583.3,1278.8,584.5z M1190.5,580.5c-1.3-1.4-2.5-2.9-3.7-4.4l0.6-0.4c1.1,1.5,2.4,3,3.7,4.4L1190.5,580.5z
				 M1286.6,576l-0.6-0.4c1.1-1.5,2.2-3.1,3.2-4.7l0.6,0.4C1288.9,572.9,1287.8,574.5,1286.6,576z M1183.5,571.3c-1-1.6-2-3.3-2.8-5
				l0.7-0.3c0.8,1.7,1.8,3.4,2.8,5L1183.5,571.3z M1292.7,566.2l-0.7-0.3c0.8-1.7,1.6-3.5,2.3-5.2l0.7,0.3
				C1294.3,562.7,1293.5,564.5,1292.7,566.2z M1178.4,561c-0.7-1.8-1.3-3.6-1.8-5.5l0.7-0.2c0.5,1.8,1.1,3.6,1.8,5.4L1178.4,561z
				 M1296.9,555.5l-0.7-0.2c0.5-1.8,1-3.7,1.3-5.6l0.7,0.1C1297.8,551.7,1297.4,553.6,1296.9,555.5z M1175.2,549.9
				c-0.4-1.9-0.6-3.8-0.8-5.7l0.7-0.1c0.2,1.9,0.4,3.8,0.8,5.7L1175.2,549.9z M1299,544.1l-0.7-0.1c0.2-1.9,0.3-3.8,0.3-5.7v-0.1
				h0.7v0.1C1299.2,540.3,1299.1,542.2,1299,544.1z M1174.9,538.4h-0.7v-0.1c0-1.9,0.1-3.8,0.3-5.7l0.7,0.1
				C1175,534.6,1174.9,536.5,1174.9,538.4L1174.9,538.4z M1298.2,532.5c-0.2-1.9-0.4-3.8-0.8-5.7l0.7-0.1c0.4,1.9,0.6,3.8,0.8,5.7
				L1298.2,532.5z M1175.9,527.1l-0.7-0.1c0.3-1.9,0.8-3.8,1.3-5.6l0.7,0.2C1176.7,523.3,1176.3,525.2,1175.9,527.1z M1296.1,521.3
				c-0.5-1.8-1.1-3.6-1.8-5.4l0.7-0.3c0.7,1.8,1.3,3.6,1.8,5.5L1296.1,521.3z M1179,516.1l-0.7-0.3c0.7-1.8,1.5-3.6,2.3-5.3l0.7,0.3
				C1180.5,512.6,1179.7,514.3,1179,516.1z M1292,510.7c-0.8-1.7-1.8-3.4-2.8-5l0.6-0.4c1,1.6,2,3.3,2.8,5L1292,510.7z
				 M1184.1,505.9l-0.6-0.4c1-1.6,2.1-3.2,3.3-4.8l0.6,0.4C1186.2,502.7,1185.1,504.3,1184.1,505.9z M1285.9,501
				c-1.1-1.5-2.4-3-3.7-4.4l0.5-0.5c1.3,1.4,2.5,2.9,3.7,4.4L1285.9,501z M1191,496.8l-0.5-0.5c1.3-1.4,2.7-2.8,4.1-4.1l0.5,0.5
				C1193.6,494,1192.2,495.4,1191,496.8z M1278.2,492.6c-1.4-1.3-2.9-2.5-4.4-3.6l0.4-0.6c1.5,1.2,3,2.4,4.4,3.7L1278.2,492.6z
				 M1199.4,489.1l-0.4-0.6c1.5-1.2,3.1-2.3,4.8-3.3l0.4,0.6C1202.5,486.8,1200.9,487.9,1199.4,489.1z M1269.1,485.7
				c-1.6-1-3.3-1.9-5-2.8l0.3-0.7c1.7,0.9,3.4,1.8,5,2.8L1269.1,485.7z M1209.1,483.1l-0.3-0.7c1.7-0.9,3.5-1.6,5.3-2.3l0.3,0.7
				C1212.5,481.4,1210.8,482.2,1209.1,483.1z M1258.9,480.7c-1.8-0.7-3.6-1.3-5.4-1.8l0.2-0.7c1.8,0.5,3.7,1.1,5.5,1.8L1258.9,480.7
				z M1219.7,478.9l-0.2-0.7c1.8-0.5,3.7-1,5.6-1.3l0.1,0.7C1223.4,478,1221.5,478.4,1219.7,478.9z M1247.9,477.6
				c-1.9-0.3-3.8-0.6-5.7-0.8l0.1-0.7c1.9,0.2,3.8,0.4,5.7,0.8L1247.9,477.6z M1230.9,476.8l-0.1-0.7c1.9-0.2,3.8-0.3,5.8-0.3v0.7
				C1234.7,476.5,1232.8,476.6,1230.9,476.8z"/>
		</g>
		<g id="XMLID_225_">
			<path id="XMLID_229_" class="st7" d="M1457.4,498.5c-29.3-0.6-53.7,22.7-54.3,52.1c-0.6,29.3,22.7,53.7,52.1,54.3
				c29.3,0.6,53.7-22.7,54.3-52.1C1510.1,523.5,1486.8,499.1,1457.4,498.5z M1457.2,591.8L1457.2,591.8c-22.2,0.5-40.5-17.1-41-39.2
				l0,0c-0.5-22.2,17.1-40.5,39.2-41l0,0c22.2-0.5,40.5,17.1,41,39.2l0,0C1496.9,572.9,1479.3,591.3,1457.2,591.8z"/>
			<path id="XMLID_226_" class="st7" d="M1544.5,537.9c-0.9-1.6-2.3-1.7-6.3-2c-4.9-0.4-9.8-0.6-14.7-1.1c-0.9-0.1-2.1-0.9-2.5-1.7
				c-2.3-5.2-4.4-10.5-6.8-15.7c-0.7-1.5-0.8-2.4,0.3-3.8c3.8-4.7,7.4-9.4,11.1-14.1c0.6-0.8,1.2-1.6,2.2-2.9
				c-6.5-6.1-12.9-12.1-19.5-18.3c-5.5,4.8-10.6,9-15.5,13.4c-1.7,1.6-2.9,1.9-5.3,0.8c-4.7-2.3-9.8-3.9-14.6-5.9
				c-0.7-0.3-1.6-1.3-1.7-2.1c-0.9-6-1.8-12-2.3-18.1c-0.3-2.9-1.5-3.9-4.2-3.8c-1,0-2.1-0.3-3.1-0.5c-4.7,0.1-9.3,0.2-14,0.3
				c-0.5,0.2-1,0.4-1.5,0.5c-5.4,0.7-4.5,0.2-4.9,5.3c-0.5,6.1-0.9,12.3-1.3,17.6c-7,3.2-13.6,6.1-20.4,9.2
				c-5.8-4.5-11.8-9.3-17.9-14c-7.3,5.5-13.1,12.1-18.3,19.5c4.7,5.4,9.2,10.7,13.8,16c0.8,0.9,1.1,1.6,0.5,3
				c-2.4,5.4-4.6,10.8-6.6,16.4c-0.6,1.6-1.3,2-2.8,2.2c-6.1,0.7-12.3,1.6-18.4,2.3c-1.5,0.2-2.3,0.7-2.5,2.4
				c-1,7.7-0.4,15.4,0.9,23c0.3,1.5,1.2,1.7,2.5,1.8c6,0.4,12,0.9,18,1.2c1.7,0.1,2.5,0.6,3.2,2.4c2.3,6.2,5,12.2,7.8,18.7
				c-4.1,5.3-8.8,11.2-13.5,17.2c5.6,7.4,11.9,13.6,19.5,18.7c5.9-5.1,11.6-10.1,16.8-14.7c6,2.1,11.6,4.3,17.3,6.1
				c2.1,0.7,3,1.6,3.2,3.8c0.6,5.9,1.4,11.7,2.2,17.6c0.2,1.2,0,2.7,1.9,2.6c7.8-0.2,15.5-0.5,23.3-0.7c1.7,0,2.2-0.9,2.3-2.6
				c0.3-6.1,0.9-12.1,1.2-18.2c0.1-2.3,1.2-3.1,3.1-3.8c4.8-1.9,9.6-4,14.1-6.4c2-1.1,3-0.9,4.6,0.4c5.2,4.3,10.6,8.5,15.8,12.6
				c4.8-2.7,15.5-14.2,18.6-19.8c-4.6-5.2-9.1-10.5-13.8-15.6c-1.2-1.3-1.1-2.2-0.5-3.7c2-4.9,3.7-10,5.7-15
				c0.3-0.8,1.4-1.8,2.3-1.9c5.4-0.8,10.8-1.4,16.3-1.9c3-0.3,4.3-0.4,4.8-1.6L1544.5,537.9z M1494.4,591.5
				c-10.6,10.2-24.6,15.6-39.3,15.3c-14.7-0.3-28.4-6.3-38.6-17c-10.2-10.6-15.6-24.6-15.3-39.3c0.3-14.7,6.3-28.4,17-38.6
				c10.6-10.2,24.6-15.6,39.3-15.3c14.7,0.3,28.4,6.3,38.6,17c10.2,10.6,15.6,24.6,15.3,39.3C1511.1,567.6,1505,581.3,1494.4,591.5z
				"/>
		</g>
		<g id="XMLID_221_">
			<path id="XMLID_224_" class="st7" d="M1288.5,415.3l-1.5,9.9l7.2-5l21.9-10.6l-16.8,1.2c0,0-8.6,1.9-9,2.3
				C1289.8,413.5,1288.5,415.3,1288.5,415.3z"/>
			<polygon id="XMLID_223_" class="st5" points="1281.2,409.2 1316.1,409.7 1288.5,415.3 			"/>
			<polygon id="XMLID_222_" class="st5" points="1299.5,425.6 1290.5,418.1 1316.1,409.7 			"/>
		</g>
		<g id="XMLID_208_">
			<g id="XMLID_211_">
				<path id="XMLID_212_" class="st7" d="M1239.2,450c0.1-0.8,0.3-1.6,0.5-2.4c0.2-0.7,0.4-1.4,0.7-2.2l0.8,0.3
					c-0.3,0.7-0.5,1.4-0.7,2.1c-0.2,0.8-0.4,1.5-0.5,2.3c0,0.2-0.1,0.4-0.1,0.7l-0.8-0.1C1239.1,450.5,1239.1,450.3,1239.2,450z
					 M1242.8,440.7c0.9-1.5,2-2.9,3.3-4.2l0.6,0.6c-1.2,1.3-2.3,2.7-3.2,4.1L1242.8,440.7z M1268.9,439.7l-0.1-0.1l0.5-0.7l0.1,0.1
					c0,0,0,0,0.1,0c0.4,0.1,1.6,0.1,2.3-0.2c0.6-0.3,1-0.8,1.4-1.5l0.7,0.4c-0.4,0.8-1,1.4-1.7,1.8c-0.9,0.5-2.3,0.5-2.9,0.3
					C1269,439.8,1268.9,439.7,1268.9,439.7z M1250,432.8c1.4-1.1,2.8-2.1,4.4-3.1l0.4,0.7c-1.5,0.9-2.9,2-4.3,3L1250,432.8z
					 M1265.7,433.2c0-0.8,0.1-1.6,0.4-2.4c0.1-0.4,0.3-0.9,0.4-1.3l0.8,0.3c-0.2,0.4-0.3,0.8-0.4,1.2c-0.2,0.7-0.3,1.5-0.3,2.2
					c0,0.5,0,1,0.1,1.5l-0.8,0.2C1265.8,434.3,1265.7,433.8,1265.7,433.2z M1269.8,429.1l-0.1-0.1l0.4-0.7l0.1,0.1
					c1.7,0.9,3,2.3,3.7,3.8l-0.7,0.3C1272.5,431.1,1271.3,429.9,1269.8,429.1z M1259.4,427.8c0.9-0.3,2.6-0.7,3.5-0.7
					c0.7,0,1.3,0,1.9,0v0.8c-0.6,0-1.2,0-1.8,0c-0.6,0-1.8,0.3-3.3,0.7L1259.4,427.8z M1269.4,424.9c1.2-1.3,2.6-2.5,4.1-3.4
					l0.4,0.7c-1.5,0.9-2.8,2-4,3.3L1269.4,424.9z"/>
			</g>
			<g id="XMLID_209_">
				<path id="XMLID_210_" class="st7" d="M1278.8,420.2c0.9-0.2,1.7-0.4,2.6-0.4l-0.1-0.8c-0.9,0.1-1.8,0.2-2.7,0.5L1278.8,420.2z"
					/>
			</g>
		</g>
		<path id="XMLID_200_" class="st5" d="M1549.7,675.4c-2.2-0.8-4.4-1.5-6.6-2.3c-0.4-0.1-0.8-0.7-0.9-1.1c-0.4-2.7-0.7-5.3-1.1-8
			c-0.1-0.8-0.1-1.2,0.6-1.7c2.3-1.7,4.5-3.4,6.8-5.1c0.4-0.3,0.7-0.6,1.4-1.1c-2.2-3.6-4.4-7.1-6.6-10.7c-3.1,1.5-5.9,2.8-8.7,4.2
			c-1,0.5-1.6,0.5-2.5-0.3c-1.9-1.6-4-3-5.9-4.5c-0.3-0.2-0.5-0.8-0.5-1.2c0.3-2.8,0.7-5.7,1.2-8.5c0.2-1.4-0.2-1.9-1.4-2.2
			c-0.5-0.1-0.9-0.4-1.4-0.6c-2.1-0.5-4.3-1.1-6.4-1.6c-0.2,0-0.5,0.1-0.7,0c-2.5-0.3-2.1-0.4-2.9,1.8c-1,2.7-1.9,5.5-2.8,7.9
			c-3.6,0.6-6.9,1.1-10.4,1.7c-2.1-2.8-4.2-5.7-6.4-8.6c-4,1.6-7.4,3.9-10.7,6.6c1.5,3,2.9,6,4.3,9c0.3,0.5,0.3,0.9-0.1,1.4
			c-1.7,2.2-3.4,4.4-5,6.6c-0.5,0.7-0.8,0.8-1.5,0.7c-2.9-0.4-5.8-0.8-8.6-1.2c-0.7-0.1-1.1,0-1.4,0.8c-1.4,3.4-2.1,6.9-2.4,10.6
			c-0.1,0.7,0.3,0.9,0.9,1.1c2.7,0.9,5.3,1.9,8,2.8c0.8,0.3,1.1,0.6,1.2,1.5c0.3,3.1,0.8,6.2,1.2,9.5c-2.5,1.9-5.4,4-8.2,6.2
			c1.6,4.1,3.8,7.7,6.6,10.9c3.3-1.6,6.5-3.2,9.4-4.6c2.5,1.7,4.8,3.4,7.1,4.9c0.9,0.6,1.2,1.1,1,2.1c-0.5,2.7-0.8,5.5-1.2,8.3
			c-0.1,0.5-0.3,1.2,0.6,1.4c3.6,0.9,7.1,1.7,10.7,2.6c0.8,0.2,1.1-0.2,1.4-0.9c0.9-2.7,1.9-5.4,2.8-8.1c0.3-1.1,0.9-1.2,1.9-1.4
			c2.4-0.3,4.8-0.6,7.2-1.2c1-0.2,1.5-0.1,2,0.7c1.8,2.6,3.8,5.2,5.7,7.7c2.5-0.6,8.8-4.5,10.9-6.7c-1.4-2.9-2.9-5.9-4.4-8.8
			c-0.4-0.7-0.2-1.1,0.2-1.7c1.5-2,2.9-4.1,4.4-6.1c0.3-0.3,0.9-0.6,1.3-0.6c2.6,0.3,5.1,0.7,7.6,1.1c1.4,0.2,2,0.3,2.4-0.1
			l2.8-11.3C1552.1,676.3,1551.5,676.1,1549.7,675.4z M1528.9,677.1c-2.5,10.1-12.7,16.3-22.9,13.8l0,0
			c-10.1-2.5-16.3-12.7-13.8-22.9l0,0c2.5-10.1,12.7-16.3,22.9-13.8l0,0C1525.2,656.7,1531.4,666.9,1528.9,677.1L1528.9,677.1z"/>
		<g id="XMLID_177_">
			<ellipse id="XMLID_197_" class="st7" cx="1159.8" cy="584.5" rx="13.7" ry="8.5"/>
			<path id="XMLID_196_" class="st5" d="M1159.9,403.7c-34.2,0-62,27.7-62,62c0,18.7,8.3,35.5,21.4,46.8c0,0,9.7,10.5,11.3,21.4
				l0.3,6.7c0.1,2.2,1,4.3,2.4,5.9c0.1,0.1,0.3,0.3,0.4,0.4h52.3c0.1-0.1,0.3-0.3,0.4-0.4c1.5-1.6,2.3-3.7,2.4-5.9l0.3-6.7
				c1.6-10.9,11.2-21.3,11.3-21.4c13.1-11.4,21.4-28.1,21.4-46.8C1221.8,431.4,1194.1,403.7,1159.9,403.7z"/>
			<path id="XMLID_2_" class="st0" d="M1162.8,585.5h-5.9c-12.9,0-23.4-10.5-23.4-23.4v-15.3h52.7v15.3
				C1186.2,575,1175.7,585.5,1162.8,585.5z"/>
			<path id="XMLID_192_" class="st8" d="M1175.4,513c-34.2,0-62-27.8-62-62c0-13.9,4.6-26.7,12.3-37.1
				c-16.8,11.1-27.8,30.1-27.8,51.7c0,18.7,8.3,35.5,21.4,46.8c0,0,9.7,10.5,11.3,21.4l0.3,6.7c0.1,2.2,1,4.3,2.4,5.9
				c0.1,0.1,0.3,0.3,0.4,0.4h52.3c0.1-0.1,0.3-0.3,0.4-0.4c1.5-1.6,2.3-3.7,2.4-5.9l0.3-6.7c1.6-10.9,11.2-21.3,11.3-21.4
				c3.3-2.9,6.3-6.1,9-9.6C1199.6,509.3,1187.9,513,1175.4,513z"/>
			<g id="XMLID_190_">
				<polygon id="XMLID_191_" class="st9" points="1159.4,495.7 1147.1,442 1136.3,473.2 1133.1,472.2 1147.8,429.9 1160.3,484.7 
					1173.2,453.2 1185.1,473.4 1182.2,475.1 1173.7,460.8 				"/>
			</g>
			<g id="XMLID_187_">
				<path id="XMLID_189_" class="st0" d="M1143.9,554.9h-0.3c-1.6,0.2-2.9-1-3.1-2.5l-8.6-83.1c-0.2-1.6,1-2.9,2.5-3.1h0.3
					c1.6-0.2,2.9,1,3.1,2.5l8.6,83.1C1146.6,553.4,1145.5,554.7,1143.9,554.9z"/>
				<path id="XMLID_188_" class="st0" d="M1176,554.9L1176,554.9c1.6,0.2,3.1-1,3.3-2.7l8.6-82.8c0.2-1.6-1-3.1-2.7-3.3l0,0
					c-1.6-0.2-3.1,1-3.3,2.7l-8.6,82.8C1173.2,553.3,1174.3,554.8,1176,554.9z"/>
			</g>
			<path id="XMLID_184_" class="st7" d="M1185.7,552.7H1134c-1.5,0-2.7-1.2-2.7-2.7v-0.4c0-1.5,1.2-2.7,2.7-2.7h51.7
				c1.5,0,2.7,1.2,2.7,2.7v0.4C1188.4,551.4,1187.2,552.7,1185.7,552.7z"/>
			<path id="XMLID_1_" class="st7" d="M1185.7,564.3H1134c-1.5,0-2.7-1.2-2.7-2.7v-0.4c0-1.5,1.2-2.7,2.7-2.7h51.7
				c1.5,0,2.7,1.2,2.7,2.7v0.4C1188.4,563.1,1187.2,564.3,1185.7,564.3z"/>
			<path id="XMLID_178_" class="st7" d="M1185.7,577.4H1134c-1.5,0-2.7-1.2-2.7-2.7v-0.4c0-1.5,1.2-2.7,2.7-2.7h51.7
				c1.5,0,2.7,1.2,2.7,2.7v0.4C1188.4,576.2,1187.2,577.4,1185.7,577.4z"/>
		</g>
		<path id="XMLID_176_" class="st9" d="M1235.2,539.3l2.1-3.9l-2-4c-0.2-0.5,0.2-1,0.7-0.9l4.4,0.8l3.2-3.1c0.4-0.4,1-0.1,1,0.4
			l0.6,4.4l4,2c0.5,0.2,0.4,0.9,0,1.1l-4,1.9l-0.7,4.4c-0.1,0.5-0.7,0.7-1,0.3l-3.1-3.2l-4.4,0.7
			C1235.3,540.3,1234.9,539.8,1235.2,539.3z"/>
		<path id="XMLID_172_" class="st9" d="M1353.1,456.6l2.1-3.9l-2-4c-0.2-0.5,0.2-1,0.7-0.9l4.4,0.8l3.2-3.1c0.4-0.4,1-0.1,1,0.4
			l0.6,4.4l4,2c0.5,0.2,0.4,0.9,0,1.1l-4,1.9l-0.7,4.4c-0.1,0.5-0.7,0.7-1,0.3l-3.1-3.2l-4.4,0.7
			C1353.2,457.6,1352.8,457.1,1353.1,456.6z"/>
		<path id="XMLID_168_" class="st9" d="M1063.3,601.1l2.1-3.9l-2-4c-0.2-0.5,0.2-1,0.7-0.9l4.4,0.8l3.2-3.1c0.4-0.4,1-0.1,1,0.4
			l0.6,4.4l4,2c0.5,0.2,0.4,0.9,0,1.1l-4,1.9l-0.7,4.4c-0.1,0.5-0.7,0.7-1,0.3l-3.1-3.2l-4.4,0.7
			C1063.4,602.1,1063.1,601.5,1063.3,601.1z"/>
		<path id="XMLID_164_" class="st10" d="M1342.4,511.7V509l-2.3-1.5c-0.3-0.2-0.2-0.6,0.1-0.7l2.6-0.9l0.8-2.6
			c0.1-0.3,0.5-0.4,0.7-0.1l1.6,2.2l2.7-0.1c0.3,0,0.5,0.3,0.3,0.6l-1.6,2.2l0.9,2.6c0.1,0.3-0.2,0.6-0.5,0.5l-2.6-0.8l-2.1,1.6
			C1342.7,512.2,1342.4,512,1342.4,511.7z"/>
		<path id="XMLID_160_" class="st9" d="M1473.3,716.8l1.8-3.4l-1.8-3.4c-0.2-0.4,0.1-0.8,0.6-0.8l3.8,0.7l2.7-2.7
			c0.3-0.3,0.8-0.1,0.9,0.3l0.5,3.8l3.4,1.7c0.4,0.2,0.4,0.8,0,0.9l-3.4,1.7l-0.6,3.8c-0.1,0.4-0.6,0.6-0.9,0.3l-2.7-2.8l-3.8,0.6
			C1473.4,717.7,1473.1,717.2,1473.3,716.8z"/>
		<path id="XMLID_156_" class="st10" d="M1423.3,751.6h-236.5c-18.1,0-32.9-14.7-32.9-32.9v-128c0-18.1,14.7-32.9,32.9-32.9h236.5
			c18.1,0,32.9,14.7,32.9,32.9v128C1456.1,736.9,1441.4,751.6,1423.3,751.6z"/>
		<rect id="XMLID_155_" x="1161.3" y="568.9" class="st0" width="287.4" height="165.2"/>
		<rect id="XMLID_152_" x="1161.3" y="568.9" class="st11" width="287.4" height="17.6"/>
		<g id="XMLID_128_">
			<path id="XMLID_151_" class="st12" d="M1296.7,510c-0.3,0-1.3,0.3-2.7,2.9c-1.8,3.3-4.3,13.4-4.3,13.4l7.7,2.9l1-2.1l1.6-16.2
				C1300,510.9,1296.8,510,1296.7,510z"/>
			<path id="XMLID_150_" class="st10" d="M1306.8,508.5c-2.2,0-7.7,0.6-10.2,1.5c0,0-1.9,16,1.7,28.1c0.8,2.7-0.7,11.3-0.7,11.3
				l22.8-0.3c0,0-2.7-20.7-1.7-24s1-15,1-15s-0.2,0-5.1-0.9C1312.4,508.8,1309.2,508.5,1306.8,508.5z"/>
			<path id="XMLID_149_" class="st13" d="M1309.5,579c0,0-0.5,5.8-1.4,7.4c-0.9,1.6,0,4.4,0.1,4.7c0,0.4,2,0.9,5,0.6s3-1,2.7-2.2
				c-0.2-1.1-1.9-2.6-2-3.7c-0.1-1.1,0.9-4.9,0.9-4.9L1309.5,579z"/>
			<path id="XMLID_148_" class="st7" d="M1300.3,544.6c0,0-15.8-0.9-19.3,1.3c-3.5,2.1,2.5,12.6,2.5,12.6s11-0.5,32.4,0.7
				c5.1,0.3,5.5-13.3,4.6-14.4C1319.5,543.6,1300.3,544.6,1300.3,544.6z"/>
			<path id="XMLID_147_" class="st10" d="M1313.5,592.2c3.1-0.3,2.7-1.9,2.5-3c-0.2-0.7-1.1-1.6-1.6-2.4c-0.3,0.2-0.7,0.6-2.1,1
				s-3.3-0.4-4.6-0.9c-0.4,1.6-0.5,3.7-0.4,4C1307.4,591.3,1310.4,592.6,1313.5,592.2z"/>
			<path id="XMLID_146_" class="st5" d="M1311.8,555.8c-0.6,4.8-3.7,28.5-3.7,28.5l7.2,0.9c0,0,8.9-31,8.4-35.7s-3.8-5.1-3.8-5.1
				S1313.5,543.2,1311.8,555.8z"/>
			<path id="XMLID_145_" class="st13" d="M1320.1,511.9c-2.1-0.8-3.2,18.4-3.5,26.3c-3.8,0.4-10.4,0-12-0.1
				c-0.8-0.1-2.6-0.7-3.3-0.8c-0.8-0.1-1.5-0.2-1.9-0.1c-0.1,0-4.1,1.6-4.4,2c-0.4,0.4-1.5,1.5-1.4,2c0.2,0.5,2.2-1.3,2.2-1.3l1-0.5
				c-1.2,1.2-3.5,2.7-3.2,3.3s2.4-1,3.9-2.1c-1.3,1.1-2.8,3.2-2.5,3.5s2.1-2.1,4-2.8c0.7-0.3,1.4,0.4,2,0.5c0.4,0.1,1,0.2,1.4,0.1
				l2.1-0.6c0.7,0.1,0.7,0.5,1.4,0.6c0.8,0.2,2.2,0.4,3.2,0.6c6.1,1.5,8.1,2.2,10,2.2C1324.8,544.7,1325.2,513.8,1320.1,511.9z"/>
			<path id="XMLID_144_" class="st12" d="M1324.2,529.9c0.4-8.1,0.3-18.1-4.2-19.8c-1.8-0.7-5,3.4-4.4,20
				C1318,530.3,1321.6,530.5,1324.2,529.9z"/>
			<path id="XMLID_143_" class="st13" d="M1287.6,584.7c0,0,1,1.8,0.2,3.4c-0.8,1.5-5.1,3.8-5.6,4.7c-0.4,0.8-0.3,1.4-0.3,1.4
				l12.8-3.1l-1-3.9l-1.2-2.7L1287.6,584.7z"/>
			<path id="XMLID_142_" class="st10" d="M1287.2,588.9c0,0,3.6,0.6,5-0.5s1.3-1.3,1.9-1.2c0.3,0.1,0.9,1.7,1.2,2.7
				c0.2,0.6-0.2,1.2-0.8,1.3l-13.3,3.3c-1,0.2-1.7-0.4-1-1.2c0.5-0.6,1.1-1,1.4-1.3C1282.5,591.2,1287.2,588.9,1287.2,588.9z"/>
			<path id="XMLID_141_" class="st5" d="M1288.9,548.3c-1-2.1-3.3-4.9-7.4-3.3c-3.9,1.6-4.9,5.5-3.7,9.6c1.2,4,9.3,27.8,9.6,31h6.4
				c0,0-1.2-18.8-1.5-23.3C1292,558,1290.6,552,1288.9,548.3z"/>
			<path id="XMLID_140_" d="M1278.4,526.5h21.6c0.6,0,1.1,0.3,1.3,0.9l6.6,16.2h11.9c0.3,0,0.6,0.3,0.6,0.6l0,0
				c0,0.3-0.3,0.6-0.6,0.6H1286c-0.9,0-1.8-0.5-2.2-1.4l-6.7-14.9C1276.7,527.5,1277.4,526.5,1278.4,526.5z"/>
			
				<ellipse id="XMLID_137_" transform="matrix(-0.1968 -0.9804 0.9804 -0.1968 1020.1368 1906.886)" class="st14" cx="1291.1" cy="535.6" rx="1.3" ry="1.2"/>
			<g id="XMLID_130_">
				<path id="XMLID_136_" d="M1301.7,489c0.6-0.2,1.3-0.5,1.9-0.8c0.7-0.3,1.6-0.7,2.2-0.8c1.2-0.2,3.3-0.1,4.4,1.2
					c1.4,1.5,3.9,0.3,3.4,8.4c-0.6,9.1-5.7,8.1-5.8,8c-0.1-0.2-4.5-5.8-4.5-5.8s-1.5,3.4-1.5,3.2
					C1301.8,502.2,1293.9,491.7,1301.7,489z"/>
				<path id="XMLID_135_" class="st13" d="M1305.6,505.6l-0.4,3.3c0,0-1,4.7,0.3,5.6s5.4-5.7,5.4-5.7l-0.4-8.3L1305.6,505.6z"/>
				<path id="XMLID_134_" class="st15" d="M1310.5,503.2c-1,2.8-3.5,4.6-5.3,5.2l0.4-2.8l4.8-5.1L1310.5,503.2z"/>
				<path id="XMLID_133_" class="st13" d="M1305.8,491.5c-2.7-0.4-5.1,1.7-5,4.4c0,1.2,0.1,2.6,0.4,4.2c0.6,3.8,3.2,7.1,4.9,6.8
					c1.7-0.3,6-3.5,5.2-8.9C1310.8,494.7,1308.7,491.9,1305.8,491.5z"/>
				
					<ellipse id="XMLID_132_" transform="matrix(-0.1717 -0.9852 0.9852 -0.1717 1045.4185 1875.9974)" class="st13" cx="1311.4" cy="498.5" rx="1.5" ry="1.2"/>
				<path id="XMLID_131_" d="M1311.1,496.9c0,0-2.1,0.5-2.8-0.8c-0.8-1.3-3.5-4.2-7-3s3.1-2.9,3.3-2.9c0.3,0,3.6,0,3.6,0
					s2.6,2.1,2.7,2.3c0.1,0.2,0.8,2.8,0.8,2.8L1311.1,496.9z"/>
			</g>
			<path id="XMLID_129_" class="st14" d="M1307.3,502.4l-3.7,0.7c0,0,0.4,1.4,2,1.1C1307.6,503.9,1307.3,502.4,1307.3,502.4z"/>
		</g>
		<g id="XMLID_104_">
			<path id="XMLID_127_" class="st13" d="M1083.3,657.1c0.1,0.5,0.2,0.7,0.4,1c1.2,2.1,3.9,5.2,3.9,5.2l2.1-4.7c0,0-0.3-1.5-0.9-3.6
				C1086.7,655.4,1084.8,655.7,1083.3,657.1z"/>
			<path id="XMLID_126_" class="st12" d="M1095.3,653c0,0-11.7,5.1-12.1,5c-0.2-0.1-4.8-7.7-4.9-14.9c0-3.3,3.4-7.3,7.3-6.5
				c1.9,0.4,1.9,0.9,4.8,5.1C1093.3,645.8,1095.3,653,1095.3,653z"/>
			<path id="XMLID_125_" class="st13" d="M1105.4,743.7l-0.3,4.6c-0.1,0.6-0.5,2-0.5,2.6c0,2,9.5-1.7,7.4-2.6
				c-0.2-0.1-1.2-0.7-1.3-1.4c-0.1-1-0.3-3.2-0.3-3.2L1105.4,743.7z"/>
			<path id="XMLID_124_" class="st10" d="M1111.9,748.3c0,0-2.2,0.6-3.4,0.8c-1.1,0.2-2.6-1.1-3.5-0.8c-0.9,0.4-0.9,3.8-0.9,3.8
				s12,1,15.3,0C1120.9,751.6,1116.5,749.7,1111.9,748.3z"/>
			<path id="XMLID_123_" class="st13" d="M1085.9,743.7l-0.3,4.6c-0.1,0.6-0.5,2-0.5,2.6c0,2,9.5-1.7,7.4-2.6
				c-0.2-0.1-1.5-1.1-1.6-1.8c-0.1-1,0-2.7,0-2.7L1085.9,743.7z"/>
			<path id="XMLID_122_" class="st10" d="M1092.5,748.3c0,0-2.2,0.6-3.4,0.8c-1.1,0.2-2.6-1.1-3.5-0.8c-0.9,0.4-0.9,3.8-0.9,3.8
				s12,1.1,15.4,0C1101.4,751.6,1097.1,749.7,1092.5,748.3z"/>
			<g id="XMLID_119_">
				<path id="XMLID_121_" class="st13" d="M1088.8,659.6l8.4-11.7c0-0.1,0.1-0.3,0.2-0.6c0.4-1.2,1.3-3.6,2.1-6l0,0
					c0.2-0.8,0.7-2.3,1.2-3.7c0.5-1.6,1.2-3.5,1.2-3.9c0-0.1-0.1-0.2-0.1-0.3c-0.3-0.8-0.7-2.7-0.9-3.5c-0.1-0.5-0.2-1.8,0.4-1.8
					c1,0,0.5,1.3,1,2.1c0.2-0.5,0.5-1.6,0.7-2.7l0.2-2.5c0-0.2-0.2-1.6,0.5-1.6l0,0c0.6,0,0.6,1.5,0.9,4c0.1-0.3,0.2-0.6,0.2-0.9
					c0-0.2,0.1-0.9,0.2-1.3c-0.1-0.7-0.1-1.8,0.7-1.7c0.4,0.1,0.3,1.6,0.3,1.6c0,0.2,0,1.8,0,2.1c0.1-0.5,0.4-2.8,0.9-2.8
					s0.5,0.6,0.5,1.1c0,0.3-0.3,2.8-0.3,3.1c0.2-0.4,0.5-2.6,0.7-2.6c0.9,0,0.6,3.1,0.3,3.9c0,0.1-0.1,0.2-0.1,0.4
					c-0.1,0.6-0.3,1.5-0.8,2.3c-0.6,1-1.4,2.6-1.5,2.8c-0.1,0.5-0.4,2.3-0.7,4.5c-0.2,1-0.3,2-0.5,3.1l0,0c0,0.2-0.2,1-0.9,3.8
					c-0.9,3.9-1,4-1,4.1c-0.4,0.7-9.4,12.9-9.8,13.5l-0.2,0.3L1088.8,659.6z"/>
				<path id="XMLID_120_" class="st15" d="M1104.4,632.3c0,0-0.7-1.7-1.9-1.7c0,0,0.7-0.2,1.3,0.2
					C1104.3,631.2,1104.4,632.3,1104.4,632.3z"/>
			</g>
			<g id="XMLID_112_">
				<path id="XMLID_118_" class="st13" d="M1086.8,629l-1.1,6.8c0,0,4.1,3.3,6.5,2.6c2-0.6,0.6-3.2,0.6-3.2s-1.1-3.6-0.7-5.5
					C1092.5,627.7,1086.8,629,1086.8,629z"/>
				<path id="XMLID_117_" class="st15" d="M1087.6,631c1,0.5,3.1,1.1,4.6,1.3c-0.2-1-0.2-2-0.1-2.7c0.2-0.9-1-1.1-2.2-1.1
					c-1.6,0.1-3.1,0.4-3.1,0.4l-0.2,1.3C1086.9,630.6,1087.2,630.8,1087.6,631z"/>
				<path id="XMLID_115_" class="st13" d="M1081.6,621.1c-0.2,0,1.6,7.6,4.4,8.9s6.9,0.6,7.7-1.4c0.9-2.3-2.3-10-6.2-11
					S1081.6,621.1,1081.6,621.1z"/>
				<path id="XMLID_114_" d="M1084.8,614.1c-2.2,1.3-3.2,3.2-3.6,3.9c-1,0.5-2.3,1.6-2.9,4.4c-0.7,3.5,1.9,6.3,4.7,7.1
					c2.8,0.8,3.2,2.7,3.2,2.7l0.3-2c0,0-0.6-1.7-1.6-2.6c-0.9-0.9,0.4-2.1,0.6-3.2c0.1-0.8-0.5-2.3-0.4-3.6c0,0,1.6-2.4,3.1-2.9
					C1091,616.9,1087.7,612.5,1084.8,614.1z"/>
				<path id="XMLID_113_" class="st13" d="M1086,625.8c0.4,0.9,0.2,1.8-0.3,1.9c-0.5,0.2-1.3-0.4-1.6-1.2c-0.4-0.9-0.2-1.8,0.3-1.9
					C1084.9,624.4,1085.7,624.9,1086,625.8z"/>
			</g>
			<path id="XMLID_111_" class="st13" d="M1096.4,659.8l16.1-2.6c0,0-1.8-4.6-2.5-4.6s-12.2,5-12.2,5l-0.9,1.8L1096.4,659.8z"/>
			<path id="XMLID_110_" class="st7" d="M1088.1,670.9c0,0-1.6,7.8-1,13.7c0.7,5.9,0.7,26.9,0.7,26.9l-2.5,33.5l5.9,0.1
				c0,0,7-33.5,6.9-32.7c-0.1,0.9,2.4-23.6,2.4-23.6l-8.4-18.7L1088.1,670.9z"/>
			<path id="XMLID_109_" class="st5" d="M1089.7,670.5c0,0-1,7,0.3,10.1s11.3,33.2,11.4,35.7s3.4,29.6,3.4,29.6l6.9-0.2l1.5-30.2
				l-3.1-38l-3-9.6L1089.7,670.5z"/>
			<path id="XMLID_108_" class="st13" d="M1085.7,635.8c0,0,1.7,1.1,3.3,1s3.8-1.6,3.8-1.6l-0.3-1.1c0,0-4.1-0.6-4.2-0.5
				C1088.2,633.6,1085.7,635.8,1085.7,635.8z"/>
			<path id="XMLID_107_" class="st13" d="M1103.9,652.4c0,0,6.1,5.8,8.9,4.8s3.9-4.3-2.8-9.3
				C1103.9,643.5,1103.9,652.4,1103.9,652.4z"/>
			<path id="XMLID_106_" class="st10" d="M1108,659.5c-0.9-4.9-7.5-20.3-8-23.1c-0.3-1.4-3.8-1.4-7.2-1.2c-3.6,0.2-7.1,0.6-7.1,0.6
				s-3.2,0.5-4.5,1.8c-1.4,1.3-1.8,4.9,0.2,11.7c1.6,5.4,3.5,8.4,4.5,12.3c0.2,1.3,0.4,2.6,0.6,4.1c0.4,5.9,0,13.6,0,13.6
				s17.2,3.6,23.6-1.8C1110.1,677.5,1109,664.5,1108,659.5z"/>
			<path id="XMLID_105_" class="st12" d="M1112.4,648.9c0,0-6.7,5.6-7.1,5.6c-0.3,0-9.6-6.9-11.8-12.6c-1.2-3.1,1.3-6.6,4.2-6.6
				c2,0,2.9,0.5,6.8,3.8S1112.4,648.9,1112.4,648.9z"/>
		</g>
		<path id="XMLID_103_" class="st12" d="M1461.6,751.6h-313.2c-7.8,0-14.1-6.3-14.1-14.1l0,0h341.2l0,0
			C1475.6,745.3,1469.3,751.6,1461.6,751.6z"/>
		<path id="XMLID_102_" class="st15" d="M1475,741.4c0.4-1.2,0.6-2.5,0.6-3.9l0,0h-341.2l0,0c0,1.4,0.2,2.7,0.6,3.9H1475z"/>
		<rect id="XMLID_99_" x="1182.5" y="597.1" class="st16" width="2.3" height="127.4"/>
		<rect id="XMLID_98_" x="1190.2" y="597.1" class="st6" width="37.2" height="2.7"/>
		<rect id="XMLID_97_" x="1190.2" y="606.8" class="st10" width="37.2" height="2.7"/>
		<rect id="XMLID_96_" x="1190.2" y="686.5" class="st6" width="37.2" height="2.7"/>
		<rect id="XMLID_95_" x="1190.2" y="696.2" class="st10" width="37.2" height="2.7"/>
		<rect id="XMLID_92_" x="1190.2" y="713.3" class="st16" width="37.2" height="2.7"/>
		<rect id="XMLID_89_" x="1232.9" y="606.8" class="st16" width="14.1" height="2.7"/>
		<rect id="XMLID_86_" x="1232.9" y="713.3" class="st16" width="14.1" height="2.7"/>
		<rect id="XMLID_85_" x="1251.2" y="713.3" class="st6" width="85.3" height="2.7"/>
		<rect id="XMLID_82_" x="1232.9" y="616.5" class="st16" width="29.2" height="2.7"/>
		<rect id="XMLID_81_" x="1267.3" y="616.5" class="st6" width="82.5" height="2.7"/>
		<rect id="XMLID_80_" x="1353.8" y="616.5" class="st10" width="69.6" height="2.7"/>
		<rect id="XMLID_79_" x="1253.6" y="606.8" class="st9" width="169.8" height="2.7"/>
		<rect id="XMLID_78_" x="1190.2" y="616.5" class="st10" width="37.2" height="2.7"/>
		<rect id="XMLID_75_" x="1190.2" y="627.4" class="st16" width="90.3" height="2.7"/>
		<rect id="XMLID_74_" x="1190.2" y="637.1" class="st10" width="125.7" height="2.7"/>
		<rect id="XMLID_71_" x="1238" y="646.8" class="st16" width="125.7" height="2.7"/>
		<rect id="XMLID_68_" x="1238" y="686.5" class="st16" width="67" height="2.7"/>
		<rect id="XMLID_65_" x="1238" y="697.5" class="st16" width="113" height="2.7"/>
		<rect id="XMLID_64_" x="1238" y="656.5" class="st6" width="54.6" height="2.7"/>
		<rect id="XMLID_61_" x="1299.1" y="656.5" class="st16" width="33.1" height="2.7"/>
		<rect id="XMLID_58_" x="1238" y="666.3" class="st16" width="74.3" height="2.7"/>
		<rect id="XMLID_57_" x="1238" y="676" class="st9" width="115.3" height="2.7"/>
		<g id="XMLID_32_">
			<path id="XMLID_56_" class="st13" d="M1421.4,738.7c0,0,0.6,4.2,1.6,5.5c0.3,0.5,1,1,1.4,1.8c0.6,1.3,0.3,3.2-0.2,4.2
				c-0.2,0.5,0,0.5-0.5,0.7c-1.7,0.5-3.4-0.4-4.1-1.9c-0.4-0.9-0.7-2.1-0.8-3.6c-0.2-3.8-1.4-5.7-1.4-5.7L1421.4,738.7z"/>
			<path id="XMLID_55_" class="st13" d="M1403.4,740.6c0,0-0.4,4.7-0.1,6.3c0.2,0.8,1.1,2.5,0.6,3.3c-0.4,0.8-0.9,1-0.9,1l-10.7,0.2
				c-0.6,0-0.2-0.4,0.3-0.7c0.8-0.6,1.4-0.9,3.8-2.1c0.2-0.1,0.7-0.4,1-0.6c0.5-0.3,1.1-0.8,1.5-1.4c0.8-0.9,0.8-5,0.8-5
				L1403.4,740.6z"/>
			<path id="XMLID_54_" class="st7" d="M1395,677.9c0,0-1.3,7.7-0.5,12.7c0.9,5,5.1,51.6,5.1,51.6l4.7,0.3c0,0,1-19.5,0.8-22.2
				s-1.6-7.2-1.6-7.2l0.5-15.7l-5.9-20.6L1395,677.9z"/>
			<path id="XMLID_53_" class="st5" d="M1408.9,676.3c0,0,3.7,5.6,4.6,10.2c0.9,4.6-0.6,18.9,1,25c0.9,3.3,4.4,8.4,4.9,12.6
				c0.5,4.3,2.6,15.4,2.6,15.4l-4.7,0.9l-10.9-27.8l-8.6-25.1l-2.2-12.9L1408.9,676.3z"/>
			<path id="XMLID_52_" d="M1419.3,748.3c2.6,0.5,4.3-1,5.2-2.2c0.7,1.3,1,3.2,0.5,4.2c-0.4,0.9-1.7,0.9-2.6,0.9
				c-1,0-1.8-0.5-2.3-1.4C1419.8,749.4,1419.5,748.9,1419.3,748.3z"/>
			<path id="XMLID_51_" d="M1397.5,747.9c2.8,0.7,4.9,0.2,6.1-0.2c0.3,0.9,0.7,1.9,0.5,2.6c-0.3,0.8-0.6,0.9-1,0.9
				c-2.6,0.1-9.4,0.2-11.4,0.2c-0.3,0-0.4-0.3-0.2-0.5C1391.9,750.2,1397.3,748,1397.5,747.9z"/>
			<path id="XMLID_50_" class="st13" d="M1378.2,664.7c-0.2-0.4,1.9-1,1.9-1.4c0.1-0.5-2.7-0.2-2.8-0.6c-0.3-0.7,3-0.5,2.9-0.8
				s-3.5-0.7-3.2-1.3s3.5,0.8,3.5,0.4c0.1-0.4-3.1-1-3.1-1.9c0-0.5,5.2,1.7,5.7,1.4s-0.9-2.3-0.4-2.7c0.4-0.4,2.2,3.8,2.6,4
				c0.3,0.1,7.4,2.3,9.9,2.6c0.2-0.8,2-5.3,2.2-6.1c1.4,0.8,3.2-0.2,4.7,0.6c-0.7,2.6-2.4,11.1-3,11.5c-2,1.2-12.5-4.4-14.2-5.4
				s-2.6-0.5-3.8-0.8C1379.8,663.9,1378.4,665.1,1378.2,664.7z"/>
			<path id="XMLID_49_" d="M1396.9,639.6c-0.5-2.4-1-4.8,0.3-7.5c1.1-2.1,3.1-3.4,5.3-3.6c6.4-0.8,5,5.2,14,6.5
				c2.8,0.4,5.4,0.8,7.7,2.2c4.2,2.5,5.8,6.5,3,13c-6.8,16-23.1,2.1-25.6-0.7C1399.2,646.7,1397.2,641.2,1396.9,639.6z"/>
			<path id="XMLID_48_" class="st10" d="M1406.9,647.2c0,0,3.2,0.4,5.2,2.5c1.9,2.1-3.1,19-3.5,21.7s3.2,10.4,3.2,10.4
				s-12.5,2.2-15.8,0c0,0-0.3-20.7,0.1-22.6c0.4-1.9,3.3-9.7,4-10.4C1400.8,648,1406.9,647.2,1406.9,647.2z"/>
			<path id="XMLID_47_" class="st13" d="M1405.3,640.7c0,0,0,0.1,0.1,0.4c0.2,1.2,1.1,5.1,1.6,6.1c0.7,1.3-2.3,5.4-5.3,4.9
				c-0.9-0.1,0.7-3.8,0.7-4.2c-0.1-0.7-0.3-1.7-0.6-2.8c-0.1-0.6-0.2-1.2-0.3-1.7c-0.3-1.6-0.6-2.9-0.6-2.9L1405.3,640.7z"/>
			<path id="XMLID_46_" class="st17" d="M1405.4,641.1c0-0.2-0.1-0.4-0.1-0.4l-4.4-0.1c0,0,0.3,1.3,0.6,2.9c0.1,0.6,0.2,1.1,0.3,1.7
				c0.7-0.1,1.4-0.4,2.1-1c0.8-0.7,1.3-1.5,1.6-2.3C1405.5,641.5,1405.4,641.3,1405.4,641.1z"/>
			<path id="XMLID_45_" class="st13" d="M1402.7,630.3c0,0,1.8,0.2,3.1,1.9c1.3,1.7,2.7,6.8-0.5,9.6s-6.4-0.4-6.8-3.7
				C1397.9,634.8,1398,630.2,1402.7,630.3z"/>
			<path id="XMLID_44_" class="st13" d="M1397.5,637.3c0.2,0.8,0.7,1.4,1.2,1.2c0.5-0.1,0.7-0.9,0.5-1.7s-0.7-1.4-1.2-1.2
				C1397.5,635.7,1397.3,636.5,1397.5,637.3z"/>
			<path id="XMLID_43_" d="M1400.7,630.3c0,0,4.2,4.8,6.2,5s2.2,2.8,2.2,2.8s-0.7-6-2.7-7.2C1404.5,629.9,1400.7,630.3,1400.7,630.3
				z"/>
			<path id="XMLID_42_" class="st13" d="M1406.2,636.5c-0.2,0.9,0.2,1.7,0.7,1.8c0.6,0.1,1.1-0.5,1.3-1.4c0.2-0.9-0.2-1.7-0.7-1.8
				C1407,635.1,1406.4,635.7,1406.2,636.5z"/>
			<path id="XMLID_41_" class="st18" d="M1406.3,660.9l-13.5,2c-0.4,0.1-0.7,0.4-0.6,0.8l2.6,18c0.1,0.4,0.4,0.7,0.8,0.6l13.5-2
				c0.4-0.1,0.7-0.4,0.6-0.8l-2.6-18C1407.1,661.2,1406.7,660.9,1406.3,660.9z"/>
			<path id="XMLID_40_" class="st0" d="M1396.2,661.8c0-0.1,0-0.2,0.1-0.2l5.6-0.8c0.1,0,0.2,0,0.2,0.1l0.1,0.6l-5.9,0.9
				L1396.2,661.8z"/>
			<path id="XMLID_37_" class="st0" d="M1398.3,661.5c0.1,0.5,0.5,0.8,1,0.8c0.5-0.1,0.8-0.5,0.8-1c-0.1-0.5-0.5-0.8-1-0.8
				C1398.5,660.6,1398.2,661,1398.3,661.5z M1398.6,661.5c0-0.3,0.2-0.6,0.5-0.7c0.3,0,0.6,0.2,0.7,0.5c0,0.3-0.2,0.6-0.5,0.7
				C1398.9,662,1398.6,661.8,1398.6,661.5z"/>
			<path id="XMLID_36_" class="st6" d="M1396.3,661.7c-0.1,0-0.1,0.1-0.1,0.2l0.1,0.6l5.9-0.9c0.1,0.4-0.2,0.8-0.6,0.8l-4.5,0.7
				c-0.4,0.1-0.8-0.2-0.8-0.6l-0.1-0.6C1396.2,661.7,1396.2,661.7,1396.3,661.7z"/>
			<path id="XMLID_35_" class="st14" d="M1400.4,639.8h3c0,0-0.1,1.2-1.4,1.2C1400.4,641,1400.4,639.8,1400.4,639.8z"/>
			<path id="XMLID_34_" class="st13" d="M1415.8,665.5l-4.9,0.5c0,0,0.1,4.2,0,4.6c0,0-8.4,2.3-11.9,3c0,0-1.6-0.9-2.2-1.2
				s-2.4-0.6-2.8-0.7c-0.4-0.1-0.3,0.4,0.1,0.5c0.3,0.1,1.2,0.5,1.4,1c0,0-0.7,0.1-1.1-0.1c-0.4-0.2-0.9-0.5-0.9-0.7
				s-0.1-0.6-0.2-0.6c0,0-0.1,0.1-0.1,0.3c0,0.1-0.1,0.3-0.1,0.4c-0.1,0.3-0.1,0.6-0.2,0.8c-0.1,0.4,0.2,1.4,0.2,1.8
				c0.1,0.7,0.3,1,0.6,1.2c0.6,0.2,1.2,0.3,2.1,0.4c1.7,0.2,3.2-0.3,3.9-0.4s11.3-1.1,11.3-1.1s4.2-0.6,4.5-1.3
				C1415.9,673.3,1415.8,665.5,1415.8,665.5z"/>
			<path id="XMLID_33_" class="st10" d="M1411.5,649.1c0,0,1.5,0.7,2.9,3.9c1.3,3,1.7,18,1.7,18l-5.1-0.9l-2.6-7
				c-1.9-4.2-1.4-9.1,1.3-12.8C1410.4,649.4,1411.1,648.8,1411.5,649.1z"/>
		</g>
		<path id="XMLID_25_" class="st7" d="M1238.8,500.9l1.1-1.8l-0.9-0.4c-0.2-0.1-0.3-0.3-0.2-0.5l0,0c0.1-0.2,0.3-0.3,0.5-0.2l1,0.4
			l1-1.6l-0.9-0.4c-0.2-0.1-0.3-0.3-0.2-0.5l0,0c0.1-0.2,0.3-0.3,0.5-0.2l1.1,0.4l1.1-1.8c0.1-0.2,0.3-0.2,0.5-0.2l0.2,0.1
			c0.2,0.1,0.3,0.3,0.2,0.5l-1.1,1.7l1.6,0.6l1.1-1.8c0.1-0.2,0.3-0.2,0.5-0.2l0.2,0.1c0.2,0.1,0.3,0.3,0.2,0.5l-1.1,1.7l0.9,0.4
			c0.2,0.1,0.3,0.3,0.2,0.5l0,0c-0.1,0.2-0.3,0.3-0.5,0.2l-1-0.4l-1,1.6l0.9,0.4c0.2,0.1,0.3,0.3,0.2,0.5l0,0
			c-0.1,0.2-0.3,0.3-0.5,0.2l-1.1-0.4l-1.2,1.9c-0.1,0.2-0.3,0.2-0.5,0.2l-0.2-0.1c-0.2-0.1-0.3-0.3-0.2-0.5l1.1-1.8l-1.6-0.6
			l-1.2,1.9c-0.1,0.2-0.3,0.2-0.5,0.2l-0.2-0.1C1238.8,501.4,1238.7,501.1,1238.8,500.9z M1242.8,499.5l1-1.6l-1.6-0.6l-1,1.6
			L1242.8,499.5z"/>
		<path id="XMLID_21_" class="st10" d="M1548.5,603.9l-0.2,0.1c-0.2,0.1-0.4,0-0.5-0.2l-1.2-1.9l-1.6,0.6l1.1,1.8
			c0.1,0.2,0,0.5-0.2,0.5l-0.2,0.1c-0.2,0.1-0.4,0-0.5-0.2l-1.2-1.9l-1.1,0.4c-0.2,0.1-0.4,0-0.5-0.2l0,0c-0.1-0.2,0-0.4,0.2-0.5
			l0.9-0.4l-1-1.6l-1,0.4c-0.2,0.1-0.4,0-0.5-0.2l0,0c-0.1-0.2,0-0.4,0.2-0.5l0.9-0.4l-1.1-1.7c-0.1-0.2,0-0.5,0.2-0.5l0.2-0.1
			c0.2-0.1,0.4,0,0.5,0.1l1.1,1.8l1.6-0.6l-1.1-1.7c-0.1-0.2,0-0.5,0.2-0.5l0.2-0.1c0.2-0.1,0.4,0,0.5,0.2l1.1,1.8l1.1-0.4
			c0.2-0.1,0.4,0,0.5,0.2l0,0c0.1,0.2,0,0.4-0.2,0.5l-0.9,0.4l1,1.6l1-0.4c0.2-0.1,0.4,0,0.5,0.2l0,0c0.1,0.2,0,0.4-0.2,0.5
			l-0.9,0.4l1.1,1.8C1548.8,603.6,1548.7,603.9,1548.5,603.9z M1546.3,601.3l-1-1.6l-1.6,0.6l1,1.6L1546.3,601.3z"/>
		<path id="XMLID_18_" class="st9" d="M1381.8,529.8l-0.2,0.1c-0.2,0.1-0.4,0-0.5-0.2l-1.2-1.9l-1.6,0.6l1.1,1.8
			c0.1,0.2,0,0.5-0.2,0.5l-0.2,0.1c-0.2,0.1-0.4,0-0.5-0.2l-1.2-1.9l-1.1,0.4c-0.2,0.1-0.4,0-0.5-0.2l0,0c-0.1-0.2,0-0.4,0.2-0.5
			l0.9-0.4l-1-1.6l-1,0.4c-0.2,0.1-0.4,0-0.5-0.2l0,0c-0.1-0.2,0-0.4,0.2-0.5l0.9-0.4l-1.1-1.7c-0.1-0.2,0-0.5,0.2-0.5l0.2-0.1
			c0.2-0.1,0.4,0,0.5,0.2l1.1,1.8l1.6-0.6l-1.1-1.7c-0.1-0.2,0-0.5,0.2-0.5l0.2-0.1c0.2-0.1,0.4,0,0.5,0.2l1.1,1.8l1.1-0.4
			c0.2-0.1,0.4,0,0.5,0.2l0,0c0.1,0.2,0,0.4-0.2,0.5l-0.9,0.4l1,1.6l1-0.4c0.2-0.1,0.4,0,0.5,0.2l0,0c0.1,0.2,0,0.4-0.2,0.5
			l-0.9,0.4l1.1,1.8C1382.1,529.4,1382,529.7,1381.8,529.8z M1379.6,527.2l-1-1.6l-1.6,0.6l1,1.6L1379.6,527.2z"/>
		<path id="XMLID_15_" class="st9" d="M1248.5,406.9l-0.2,0.1c-0.2,0.1-0.4,0-0.5-0.2l-1.2-1.9l-1.6,0.6l1.1,1.8
			c0.1,0.2,0,0.5-0.2,0.5l-0.2,0.1c-0.2,0.1-0.4,0-0.5-0.2l-1.2-1.9l-1.1,0.4c-0.2,0.1-0.4,0-0.5-0.2l0,0c-0.1-0.2,0-0.4,0.2-0.5
			l0.9-0.4l-1-1.6l-1,0.4c-0.2,0.1-0.4,0-0.5-0.2l0,0c-0.1-0.2,0-0.4,0.2-0.5l0.9-0.4l-1.1-1.7c-0.1-0.2,0-0.5,0.2-0.5l0.2-0.1
			c0.2-0.1,0.4,0,0.5,0.2l1.1,1.8l1.6-0.6l-1.1-1.7c-0.1-0.2,0-0.5,0.2-0.5l0.2-0.1c0.2-0.1,0.4,0,0.5,0.2l1.1,1.8l1.1-0.4
			c0.2-0.1,0.4,0,0.5,0.2l0,0c0.1,0.2,0,0.4-0.2,0.5l-0.9,0.4l1,1.6l1-0.4c0.2-0.1,0.4,0,0.5,0.2l0,0c0.1,0.2,0,0.4-0.2,0.5
			l-0.9,0.4l1.1,1.8C1248.8,406.6,1248.7,406.8,1248.5,406.9z M1246.3,404.3l-1-1.6l-1.6,0.6l1,1.6L1246.3,404.3z"/>
		<path id="XMLID_14_" class="st10" d="M1137.3,653.8c3.8,3.3,1.3,5.8-0.2,4.9c-0.6-0.4-0.8-1.2-0.3-1.8c0.3-0.2,0.8,0,0.7,0.3
			c0,0.3,0.3,0.3,0.4,0c0.1-0.5-0.3-0.9-0.6-1.3c-0.6-0.8-1.4-1.8-2.5-1.8c-1.7,0.1-3.1,2-1.7,4.3c2,3.3,7.7,2.1,8-1.8
			c0.2-2.1-1.1-4.2-3-5.1c-0.4-0.2-0.1-0.7,0.3-0.6c2.7,0.6,4.1,3.6,3.7,6.1c-0.4,2.6-2.8,4.3-5.4,4.4c-2.7,0.1-5.3-1.8-5.5-4.6
			C1131.2,653.8,1134.6,651.5,1137.3,653.8z"/>
		<path id="XMLID_13_" class="st10" d="M1297.9,466.1c3.8,3.3,1.3,5.8-0.2,4.9c-0.6-0.4-0.8-1.2-0.3-1.8c0.3-0.2,0.8,0,0.7,0.3
			c0,0.3,0.3,0.3,0.4,0c0.1-0.5-0.3-0.9-0.6-1.3c-0.6-0.8-1.4-1.8-2.5-1.8c-1.7,0.1-3.1,2-1.7,4.3c2,3.3,7.7,2.1,8-1.8
			c0.2-2.1-1.1-4.2-3-5.1c-0.4-0.2-0.1-0.7,0.3-0.6c2.7,0.6,4.1,3.6,3.7,6.1c-0.4,2.6-2.8,4.3-5.4,4.4c-2.7,0.1-5.3-1.8-5.5-4.6
			C1291.7,466.1,1295.2,463.7,1297.9,466.1z"/>
		<g id="XMLID_11_">
			<polygon id="XMLID_12_" class="st7" points="1539.2,642.2 1535.6,641.6 1535.4,644 1534.2,643.9 1534.5,640.2 1538.1,640.8 
				1538.2,638 1541.5,638.5 1542,635.6 1543.2,635.8 1542.4,639.8 1539.3,639.3 			"/>
		</g>
		<g id="XMLID_9_">
			<polygon id="XMLID_10_" class="st7" points="1106.6,591.3 1110.2,590.7 1110.4,593.1 1111.5,593 1111.3,589.3 1107.7,589.9 
				1107.6,587.1 1104.3,587.6 1103.8,584.7 1102.6,584.9 1103.4,588.9 1106.5,588.4 			"/>
		</g>
		<g id="XMLID_7_">
			<path id="XMLID_8_" d="M1072,752.5L1072,752.5c0,0.6,0.8,1,1.7,1h424.7c0.9,0,1.7-0.5,1.7-1l0,0c0-0.6-0.8-1-1.7-1h-424.7
				C1072.8,751.5,1072,752,1072,752.5z"/>
		</g>
		<path id="XMLID_6_" class="st14" d="M1093,625.5l-2,1.2c0,0,0.5,0.7,1.4,0.2C1093.5,626.3,1093,625.5,1093,625.5z"/>
	</g>
	<g>
		<path class="st19" d="M1058.1,293.3c0.8-1,1.6-1.9,2.4-3c0.7-1,1.5-1.3,2.7-1.3c4.6,0,9.2,0,13.8,0c14.8,0,29.6,0,44.4,0
			c0.3,0,0.7,0,1,0c0.5,0.1,0.8,0.3,0.6,0.9c0,0.1,0,0.1-0.1,0.2c-1.5,4.3-0.5,3.6-4.7,3.6c-19.4,0.1-38.7,0.1-58.1,0.2
			c-0.7,0-1.4,0.1-2-0.2C1058.1,293.6,1058.1,293.5,1058.1,293.3z"/>
		<path class="st20" d="M1201.1,313c-8.4,0-16.5,0-24.6,0c-3.6,0-4.4-1.2-3-4.6c1.9-4.5,4-8.9,6.2-13.3c0.9-1.7,2.1-2.4,4-2.4
			c13.5,0,27,0,40.6,0c0.8,0,1.2-0.2,1.5-1c5.1-13.7,13.7-24.5,26.6-31.7c6-3.4,12.5-5.2,19.3-6.4c4.4-0.8,8.9-1.1,13.4-0.9
			c10.6,0.4,19.8,4.1,27.9,10.9c8.1,6.9,12.9,15.6,14.3,26.2c2.2,16.7-2.5,31.3-14.3,43.5c-9,9.4-19.9,15.2-32.6,17.7
			c-11.2,2.2-22.1,1.2-32.4-3.9c-11.2-5.5-19.1-14-22.8-26.1c-0.1-0.2-0.2-0.4-0.3-0.7c-1.3,2.4-2.6,4.7-4.1,6.9
			c-7.1,10-16,17.6-27.7,21.6c-11.1,3.8-22.3,4.7-33.5,0.7c-16.2-5.8-26.5-16.9-29.3-34.2c-2.3-14,1.3-26.8,9.5-38.3
			c7-9.8,15.8-17.2,27.1-21.5c10-3.8,20.4-5.5,31-3c13.6,3.1,23.6,11.1,29.6,23.8c1.2,2.6,1.2,2.8-1.7,3.5
			c-7.1,1.9-14.3,3.7-21.4,5.6c-1.5,0.4-2.5,0.1-3.4-1.1c-3.2-4.1-7.4-6.3-12.4-7.3c-5.7-1.2-11,0.1-16,2.9
			c-6.6,3.7-11.6,8.9-13.8,16.3c-2.1,7-2.4,13.9,1.5,20.4c4.5,7.6,11.5,10.7,20.2,10.1c7.9-0.5,13.8-4.6,18.4-10.8
			C1199.7,315,1200.3,314.1,1201.1,313z M1279.5,276.6c-0.8,0-1.7,0-2.5,0.1c-12.4,1.8-22.1,8.9-25.6,22.3
			c-3.8,14.5,6.4,27.8,21.4,28c5.6,0,10.6-1.8,15.1-4.8c8.8-5.9,13.5-14,13.2-24.7C1300.9,285.6,1291.4,276.7,1279.5,276.6z"/>
		<path class="st19" d="M1102.2,281.9c-7.7,0-15.3,0-23,0c-0.4,0-0.9,0.2-1.1-0.2c-0.2-0.4,0.3-0.7,0.5-1c0.6-0.8,1.3-1.6,1.8-2.4
			c0.6-0.9,1.4-1.2,2.5-1.2c8.2,0,16.4,0,24.6,0c7,0,13.9,0,20.9,0c0.4,0,1-0.2,1.2,0.3c0.2,0.4-0.2,0.8-0.4,1.1
			c-0.5,0.8-1,1.5-1.5,2.3c-0.6,1-1.4,1.4-2.6,1.4c-7.6,0-15.3,0-22.9,0C1102.2,282,1102.2,281.9,1102.2,281.9z"/>
		<path class="st19" d="M1104.7,306.1c-4.5,0-9.1,0-13.6,0c-1.4,0-1.5-0.2-0.8-1.4c2.4-4.1,1.3-3.4,5.8-3.5c7.5,0,15,0,22.5,0
			c1.6,0,1.6,0.1,1.5,1.7c0,0.6-0.1,1.2-0.1,1.8c0,1.2-0.5,1.5-1.7,1.5C1113.8,306.1,1109.3,306.1,1104.7,306.1
			C1104.7,306.1,1104.7,306.1,1104.7,306.1z"/>
	</g>
</g>
<path class="st21" d="z"/>
</svg>
